<svg width="96" height="41" viewBox="0 0 96 41" xmlns="http://www.w3.org/2000/svg"><path d="M78.6 28c1 0 1.5-1.2.6-1.3-23.6-1.2-62.4 3.3-78 7.6-1 .2-1.6 3.4-1 3.2 24-5.7 51.3-9.7 78.4-9.5zm17-2.6c0-.4 0-.7-.4-1-.6-1-2.6-1-4.7-.5.2-1.5 2-7.7 2-7.8.3-.8-.2-1.2-1-1-.8 0-1.6.4-2 1l-3 3.4c-1.2 1.2-3 3-4 3-.3 0 0-.7 0-1l3-5.3c.3-.4.4-1 0-1.4-1-.6-2.2.7-2.4 1-.4.7-2.2 3.8-2.8 6.5-.4 1.5.8 2.6 2.5 2 2.3-1 6-4.7 6.6-5.4 0 .5-.7 2.4-1 4.7 0 .4-.5.7-1 1-1.2.3-2.3 1-3.4 1.7-1 .5-1.6 1-2.3 1.7v.2c-1 .6-1.6 1.3-2.3 2l-.6.7c-1.3 1.7-2.4 4-2.7 6-.2 2 1.2 3.7 3 3.6 1.6 0 2.8-.5 4-1.4 2-1.5 3.3-4 4.4-6 .5-1 1-2 1.3-3l.7-1.8V28L90 27l.3-1 1.7-.4c1 0 1.4 0 1.4.2.2.3 0 .4 0 .8v.4c.2.4.5.6 1 .6.2 0 1 0 1.3-.5l.2-.4c.2-.4.3-.8.2-1.2zm-8 1c0 .4 0 1.2-.3 1.7v.3l-.7 2c-.5 1-1 2.3-1.7 3.4-1 1.6-2 3.5-3.5 4.5-.5.4-1.2.7-1.8.8-1 .3-1.8-.4-1.7-1.5.4-2.2 1.5-4.4 3-6l1-1.3c1-.8 1.7-1.5 2.5-2 0-.2.2-.3.3-.3.7-.5 1.3-1 2-1.3l.7-.3s.2 0 .2-.2v.2zM41 14.4c-1.2.2-2.2.8-3 1.6-2 1.5-3.2 3.3-3.6 5.5-.3 1.8 1.2 3.3 3.3 3l3.4-1 4-2.5c0 .3-.6 2.3-.5 3 0 .2.4.7.8.7.7 0 1.3-.3 1.5-1 1-2.3 3.3-5.4 6.3-6.4.7-.2 1 .2 1 .8 0 1-.8 2.6-.6 4 0 1.2 1 2 2.5 2 1 0 1.8-.5 2.6-1l2-1.5c.7 2 1.8 2.7 4 2.4 2-.3 3.6-1 5.3-2.2.2-.3 1.2-1 1.6-1.3l-.7 2.2c-.3.5 0 1 .4 1.2.7.2 1-.4 1.2-.7l.6-1.2c1.2-2.4 2.5-4 5-5.6.7-.5 1.5-.5 1.7-.4 0 .3-.4.6-.4 1-.2.7.4 1.3 1.2 1 1-.4 1.3-2 1.4-2.5 0-1-.8-1.7-2-1.5-1.6.3-3.3 1.5-4.5 2.6l.6-1.5c.2-.4.2-.8-.4-1-.6-.2-1-.2-1.4.3-.3.4-1 2.5-1.5 3l-3.2 3c-2.2 1.6-4.5 2.3-5.4 2-.8 0-1.2-.4-1.3-1.3 0-.4.2-.4.7-.5 1.6-.4 3.3-1 4.6-2 1-.5 1.8-1.2 2.2-2.3.5-1 0-2-1.5-2.3-2-.3-4.6 1.2-6 2.6L60 20l-2.6 2c-1 .4-1.5 0-1.5-1v-.5c0-1 .7-1.6 1-3 0-1.7-1.5-2.7-3.4-2.3-1.7.4-3.3 1.4-5.6 3.7.4-1.4 1-2.6 2-3.3l1.6-1.2c3-2 5.8-4.5 7.8-7.5.5-.8 1-1.7 1.3-2.6V4c.3-.5.4-1 .4-1.5v-.2c0-1-1-1.8-2-1.6-1 0-1.7.3-2.5.7l-1.5 1-.4.4L53 4.5h-.2c0 .2 0 .3-.2.4-3 3.4-5 7.4-6.5 11.6 0 .4 0 1-.4 1.2-1.5 1.8-3.2 3.3-5.3 4.3-.7.4-1.5.6-2.2.7-.6.2-1-.2-1-.8-.2-.3-.2-.6 0-.8.5-2 1.5-3.5 3.5-4.6.8-.4 1.4-.3 1.4-.2 0 .3-.5.4-.7.7-.4.4-.4 1 0 1.2.2.2.6.3 1 0 .8-.3 1.2-.6 1.5-1.2.7-1 .2-2.3-1.2-2.6-.5-.2-1 0-1.6 0zM67.4 16c.3-.2.8-.4 1-.2 0 .3 0 .7-.3.8-1 1-2.5 2-4.2 2.3 1-1.3 2-2.4 3.6-3zM55.8 4.4l.2-.2c.8-.8 1.4-1.3 1.7-1.4.5-.4 1-.4 1-.3.3 0 .4.4.3.8l-.3.7v.3c-2 4-6.2 7.5-9 9.2 2-4.5 4.4-7.5 6-9.2zM1 29.2c.8 0 1.8-.8 2-1.8.2-1.7 2.4-5 5.7-7.2.6-.4-1.3 2.7-.8 4.7.2 1.4 1.2 2.6 2.7 2.5 2.6-.2 4.4-2.8 5-3.3 0 1.5 1.7 2.5 3.5 1.6 1.8-1 3.5-2.4 4.2-3.4v.8c0 1.6 1.4 2.4 3 1.8 1.8-.5 4.2-3.2 4.4-3.3l-.2 1.4c0 1 .4 1.6 1 2.2.4.6 2 1 2.2.5.2-.5-1-1-1.2-2.2 0-1 .3-2.2.5-3 .3-.6 2-4.2 3.8-7.3 1.4-.6 2.5-1 3.4-1 .2 0 1-.2 1 0 .2.4 0 .7.4.8.3 0 1-.3 1-.5.5-.4.8-.8.5-1.5 0-.4-.8-.7-1.5-.7-1.2 0-2.3.4-3.8.8.7-1.4 1-1.8 1.7-2.5 1-.6 1.3-1.7.7-2.2-.7-.6-2 0-2.6 1.2-1 1.6-2.2 4.2-2.2 4.2s-1 .2-2.3 0c-1 0-1.6.2-1.8 1 0 .6.5.8 1.2 1h1.8L32 18c-.8 1.5-2 2.8-3.5 4-1.4 1-2.6 1.2-2.8.7-.4-1.5 1.7-5 2.2-5.8.2-.6 0-1-.4-1.3-.5-.3-1-.3-1.6 0l-.6 1c-1-1.6-2.5-1-3.7-.6-2.5 1.2-4.4 3.6-5.4 5.2-1 1.7-1.5 2.3-2.7 3.2-1 .8-2 1.7-2.8.7-1.3-2 1.7-6 1.6-7 0-.4-1.4-1.3-3-.5-.2 0-2.7 1-6 5.5.2-1.3 1-3.3 1-3.3l2-1.7c2.7-2.4 5-5 6.7-8 .6-1 1-1.7 1-2.6.2 0 .2-.3.2-.4V5.8v-.6-.4C14 4 13 3.5 12 3.8c-.7 0-1.4.3-2 .7-.4.2-.8.5-1 .8l-1 1-1 1.4c-.2 0-.2 0-.3.2-2.5 3.4-4 7.2-5 11C1 22 .3 24.8 0 27.7c.2.7.4 1.4 1 1.5zm20.8-11c1.6-1 2.5-.5 2 .6-.4 1.2-1.8 3-3.2 4.2-1.7 1.4-2.6 1.5-2.6.6 0-1.8 2.2-4.4 3.8-5.4zm-17.2-1c1-3.4 2.5-6.6 4.7-9.5v-.2h.2c.3-.5 1-1 1.4-1.5.4-.3.8-.5 1.2-.4l.2.3v1.5L11 10c-1.5 2.5-4.6 5.7-6.7 7.4V17z" fill="#FF550C" fill-rule="evenodd"/></svg>