<?xml version="1.0" encoding="UTF-8" standalone="no"?>
<svg width="96px" height="41px" viewBox="0 0 96 41" version="1.1" xmlns="http://www.w3.org/2000/svg" xmlns:xlink="http://www.w3.org/1999/xlink">
    <!-- Generator: Sketch 3.7.2 (28276) - http://www.bohemiancoding.com/sketch -->
    <title>hatchery_logo_orangeorange</title>
    <desc>Created with Sketch.</desc>
    <defs></defs>
    <g id="Symbols" stroke="none" stroke-width="1" fill="none" fill-rule="evenodd">
        <path d="M78.5867131,27.9636253 C79.4541799,27.9704117 80.074669,26.7508933 79.1865644,26.7061029 C55.5572302,25.5103369 16.8331625,30.0158368 1.33142337,34.251916 C0.347572618,34.520658 -0.405540092,37.6987354 0.241000065,37.5436659 C24.3483883,31.7582484 51.543674,27.7515499 78.5867131,27.9636253 Z M95.6951604,25.3695188 C95.6295252,25.0210365 95.4620541,24.6803585 95.1883487,24.3169461 C94.5803776,23.5076663 92.576137,23.3841535 90.5038929,23.8934739 C90.7258345,22.4564508 92.6021881,16.2679204 92.6218109,16.1875014 C92.7524046,15.4488003 92.3325426,15.0470446 91.5117648,15.1875234 C90.6574927,15.3344492 89.9148681,15.6489995 89.3606908,16.2984592 C88.3886814,17.4372194 87.462346,18.4816485 86.3583897,19.6468756 C85.2517268,20.8107456 83.4048075,22.4540756 82.6489882,22.506331 C82.236231,22.5341553 82.4480228,21.9474698 82.5326042,21.7411628 C82.9138971,20.7978514 84.9384373,17.1884974 85.5413335,16.3188185 C85.8096257,15.9272424 85.8698476,15.322573 85.4530305,14.9279431 C84.5155304,14.4484829 83.2975583,15.7294185 83.0972696,16.0314139 C82.6138024,16.7477198 80.8108654,19.8134821 80.1927446,22.4897042 C79.8046852,23.9691424 81.0260405,25.0916152 82.7112401,24.4170457 C84.9567069,23.5097022 88.6559586,19.8094102 89.3407296,19.1283937 C89.3173851,19.4680537 88.6431023,21.3743572 88.2570728,23.7187237 C88.1873777,24.1408386 87.8162346,24.3956685 87.3960342,24.5544705 C86.1361098,25.0318947 84.9685483,25.6783006 83.8757567,26.3661036 C82.9846072,26.9266614 82.3580282,27.5204725 81.6945718,28.0620283 C81.658371,28.0918885 81.6225084,28.1220881 81.5859693,28.1512697 C80.8122187,28.7712085 80.0929386,29.455279 79.4318504,30.2051777 C79.22987,30.4342192 79.0326262,30.6673325 78.8424873,30.9092681 C77.4563674,32.6652526 76.3967317,34.9271642 76.0712626,37.1279981 C75.7867308,39.0743414 77.2039766,40.6749171 79.1124711,40.640985 C80.5723459,40.6148573 81.8315936,40.1123234 82.9551729,39.2433231 C84.9489254,37.7011107 86.2694101,35.3194189 87.3994175,33.163036 C87.8977711,32.2119202 88.3284595,31.2377305 88.7111057,30.2475928 C88.9482719,29.6334224 89.1712285,29.0155194 89.3677956,28.3887941 C89.3965533,28.2978562 89.4226044,28.2048823 89.4503471,28.1129264 C89.5802641,27.6840251 89.7037529,27.2534272 89.8157387,26.819436 C89.8641192,26.6304344 90.0434318,26.0128708 90.0887674,25.8228512 C90.3005592,25.7912944 91.0925794,25.5086403 91.6701011,25.4275426 C92.7706742,25.273491 93.1039249,25.5408757 93.1235478,25.5988996 C93.2263987,25.9070027 93.1421557,25.988779 93.1167812,26.365425 C93.1062931,26.5221911 93.1147513,26.6633485 93.142494,26.7892365 C93.2236921,27.1570601 93.4757447,27.3874588 93.9331608,27.4481972 C94.2078812,27.4845045 94.8906222,27.4953628 95.3263855,26.9303939 C95.3981105,26.8370807 95.4644223,26.729516 95.5199077,26.6015922 C95.7141066,26.1543675 95.768577,25.7573623 95.6951604,25.3695188 Z M87.7110153,26.37289 C87.6000446,26.8408132 87.4748641,27.5723886 87.3405488,28.0912099 C87.3216026,28.1648425 87.3023181,28.2347426 87.2830335,28.2981955 C87.0810531,28.9598708 86.8459169,29.5977937 86.5958943,30.2279122 C86.1205469,31.4267321 85.5677229,32.5790651 84.9232127,33.6954301 C84.0117636,35.2746285 83.0153948,37.1612515 81.4638338,38.2450417 C80.9576987,38.5982745 80.3375479,38.8639626 79.7282236,39.0078346 C78.6144558,39.2697901 77.8785977,38.5660391 78.0467455,37.4693547 C78.3810112,35.3024528 79.4582398,33.1009403 80.9533005,31.4745763 C81.3308718,31.0633197 81.7287427,30.6327217 82.1418382,30.2058563 C82.8925826,29.4301693 83.6991508,28.6738235 84.5497012,28.0715293 C84.648154,28.0023079 84.7455918,27.9300326 84.8450595,27.8645437 C85.4557371,27.4644846 86.0860376,27.0861421 86.7373144,26.7322306 C86.9599326,26.6107538 87.1947305,26.5028498 87.4897504,26.3637284 C87.5702719,26.3260638 87.6528233,26.2863632 87.7434946,26.2429302 C87.7336832,26.2867026 87.7211651,26.3291177 87.7110153,26.37289 Z M41.0078775,14.3646707 C39.7804324,14.6066064 38.7742521,15.2441899 37.8878391,16.0137692 C36.1471541,17.5240855 34.8111064,19.2586928 34.4406399,21.4578301 C34.1259972,23.3458103 35.6379741,24.8140509 37.6760473,24.4964467 C38.8453005,24.3145708 40.0314699,23.9185836 41.0755426,23.3943332 C42.3459551,22.7553923 43.743578,21.7425201 44.9629034,20.967851 C44.8965916,21.253559 44.3606839,23.2721777 44.4733463,23.9067074 C44.5305233,24.2317766 44.9459871,24.7288814 45.2920942,24.7404183 C45.9927664,24.7631527 46.5841595,24.4000796 46.8294455,23.7631747 C47.695559,21.4357742 50.1426678,18.2861997 53.1101213,17.2726489 C53.7045594,17.0690565 54.0290136,17.484385 53.9671,18.0619088 C53.8530843,19.1138029 53.210604,20.6454964 53.3533774,21.9827592 C53.4876927,23.2392636 54.4766183,23.9501404 55.8569866,23.9715176 C56.9267721,23.9884837 57.8155533,23.5395624 58.6417444,22.9905416 C59.3647461,22.5100635 60.0413972,21.9695257 60.7447761,21.4571514 C61.2603842,23.5005405 62.3599423,24.1961479 64.6412716,23.9464079 C66.7064109,23.7224562 68.2190645,22.8558312 69.8971593,21.7530391 C70.2395448,21.5280695 71.174,20.8066737 71.6456258,20.4877123 C71.4409389,21.1239385 70.9818311,22.219605 70.8505607,22.7122986 C70.7081257,23.2477466 70.8870999,23.7516378 71.4226693,23.9477652 C72.0614279,24.1822358 72.3797923,23.6006401 72.5824493,23.2572476 C72.827397,22.8422584 72.9911466,22.5294048 73.2053067,22.0994855 C74.4483148,19.610229 75.6960595,17.9970985 78.0849763,16.3965229 C78.9131973,15.8692186 79.6568369,15.8973822 79.8598322,16.0361644 C79.8977247,16.268599 79.6277409,16.6438877 79.5556776,16.9560627 C79.3739967,17.7483765 80.0296717,18.31606 80.8419914,17.9926874 C81.6522811,17.5790555 82.1367633,15.9893381 82.1526646,15.4583013 C82.1834522,14.4511975 81.3589528,13.7508396 80.263793,13.9710588 C78.5887431,14.3080042 76.8612528,15.526844 75.6923379,16.608259 C75.9251059,16.0419328 76.1121999,15.5645086 76.3202702,15.0931922 C76.5246188,14.6300195 76.487403,14.2174056 75.9352557,13.9897214 C75.3868299,13.7630552 74.8576887,13.8489033 74.5521808,14.3382037 C74.29573,14.7467458 73.5243477,16.824067 73.1061773,17.2400741 C71.9595919,18.3791736 71.1039666,19.2746409 69.7888951,20.2434014 C67.5593296,21.8867314 65.2675122,22.550782 64.3557248,22.344475 C63.6405046,22.1816011 63.172262,21.9281285 63.069411,20.9797272 C63.056893,20.6465143 63.2355289,20.6085104 63.7166278,20.4907662 C65.2712338,20.1110663 66.9659066,19.4904488 68.2589869,18.6251811 C69.2191549,17.9818291 70.0910198,17.2543256 70.5284748,16.2105752 C70.9923192,15.1054078 70.3515305,14.0891423 69.0418723,13.8865679 C66.9148194,13.6904406 64.4061354,15.2499584 63.1367378,16.6018119 C62.070674,17.7320891 61.068892,18.9132644 59.948696,19.9899288 C59.2094547,20.700127 58.3480778,21.3363533 57.4440718,21.862979 C56.4754458,22.4272692 55.8894659,22.0550345 55.9029989,21.0089088 C55.9053672,20.8443383 55.9209301,20.6784105 55.9479962,20.5155366 C56.1158057,19.5169158 56.6618631,18.9492323 56.8689184,17.5162811 C57.0969498,15.7901569 55.5308408,14.8176638 53.6341876,15.2167049 C51.8935026,15.5848679 50.2593901,16.6459236 47.9655428,18.8827255 C48.4381836,17.5760016 48.8827434,16.43792 50.0438767,15.6642689 C50.5787695,15.3083215 51.0696799,14.8980828 51.5964528,14.5299199 C54.6407062,12.401022 57.3665953,10.0071147 59.3529047,6.99869757 C59.9009921,6.16804057 60.383106,5.3102379 60.6957189,4.40425171 C60.7359796,4.28786472 60.7742104,4.17045976 60.8087196,4.05305481 C60.9582595,3.53762671 61.0526523,3.00692918 61.0641554,2.45383648 C61.0644937,2.44060298 61.0665237,2.42804811 61.066862,2.41447528 C61.0675387,2.35950533 61.0644937,2.30521403 61.0597572,2.25126204 C60.9788974,1.29980687 60.0752298,0.533281474 58.9651836,0.654079634 C58.1227529,0.745696215 57.2563012,1.03852996 56.5302545,1.42365892 C55.9811521,1.71513538 55.4827985,2.05479537 55.0189542,2.42601219 C54.8714442,2.54409578 54.7269792,2.66557258 54.5862358,2.78942463 C53.9907828,3.31401439 53.4511535,3.88746632 52.9416352,4.4812775 C52.8949463,4.53590813 52.848934,4.59155672 52.8022451,4.64618735 C52.7355949,4.7242311 52.6689448,4.80193554 52.603648,4.88065793 C49.6551407,8.43402402 47.7283766,12.4291856 46.1406147,16.5539677 C45.9772034,16.9787972 45.8648793,17.4511316 45.5786559,17.8016498 C44.1343441,19.5681533 42.4078687,21.0550564 40.2503666,22.0652141 C39.5770987,22.3801037 38.8226327,22.5806422 38.0816997,22.7340151 C37.3965904,22.8755118 36.9479707,22.5263509 36.8579761,21.8908033 C36.8238052,21.6509035 36.8295568,21.3899659 36.8935003,21.156174 C37.4669621,19.0564577 38.4934419,17.6761012 40.5206887,16.5773808 C41.3231969,16.1630703 41.8871857,16.3337486 41.9331979,16.3982195 C42.0915343,16.6859635 41.5126593,16.8267815 41.2846278,17.055823 C40.9368291,17.4043053 40.8989367,17.903446 41.2359089,18.1759205 C41.5431086,18.4246426 41.9396261,18.4517882 42.440348,18.2152817 C43.0510256,17.9268592 43.4505881,17.5590355 43.7994018,17.0408929 C44.5491312,15.929957 43.9726244,14.6992409 42.5675584,14.3582236 C42.0810462,14.24014 41.5075844,14.2662677 41.0078775,14.3646707 Z M67.4104664,15.8861846 C67.6645489,15.7687797 68.1507227,15.5984407 68.3496582,15.8383404 C68.5479169,16.0779008 68.2522204,16.4626905 68.0556532,16.6486382 C66.891475,17.7490551 65.4891155,18.5149019 63.8384251,18.9427853 C64.7931798,17.7042648 65.8920612,16.5875605 67.4104664,15.8861846 L67.4104664,15.8861846 Z M55.7636088,4.54608775 C55.8475135,4.4599003 55.9310799,4.37473081 56.0112631,4.29499045 C56.8080198,3.50674853 57.4268172,3.03645008 57.7428133,2.85355623 C58.1900797,2.59465456 58.6474959,2.55800793 58.8454163,2.69441484 C59.0308188,2.82199941 59.1272415,3.05477339 58.9712735,3.5128563 C58.8951502,3.72696765 58.8088772,3.93870375 58.7168526,4.15111849 C58.6718553,4.25528993 58.6177232,4.35776478 58.5693427,4.4615969 C56.7285133,8.38210795 52.4689944,11.9609231 49.8317466,13.697227 C51.8167027,9.19885281 54.1146099,6.23794062 55.7636088,4.54608775 Z M1.10406858,29.1726249 C1.84635488,29.2391317 2.76118721,28.3613092 2.9344099,27.4125686 C3.2334897,25.7478613 5.44038737,22.3183473 8.71876211,20.1925033 C9.31590673,19.8012666 7.43312495,22.8965497 7.87362484,24.9351883 C8.18556101,26.3959638 9.16230692,27.5910512 10.7098081,27.5004526 C13.3352145,27.3480976 15.0911241,24.6528735 15.6699992,24.1774853 C15.7129665,25.6996778 17.3521539,26.6725102 19.2200494,25.7641487 C21.0338127,24.8829329 22.6621737,23.3651516 23.373334,22.416411 C23.3973551,22.942358 23.346268,22.8415798 23.3831455,23.2311199 C23.5347153,24.8137115 24.8051278,25.5575024 26.4991239,25.0312161 C28.1880451,24.5028938 30.6141778,21.8280289 30.8205564,21.6637977 C30.704849,22.3427784 30.6388756,22.5304227 30.6365073,23.0964096 C30.6324474,24.0071463 30.9917491,24.6376041 31.5290101,25.2242895 C32.027702,25.7661847 33.4645707,26.283988 33.755869,25.7051069 C34.0204396,25.1811958 32.7943477,24.6742507 32.6370263,23.5008798 C32.5138758,22.5819995 32.9222348,21.2664532 33.103239,20.5949376 C33.2805216,19.9227434 35.1132312,16.2750461 36.7642599,13.1515993 C38.1757542,12.6015605 39.2519678,12.2954933 40.2442767,12.140763 C40.3762237,12.1197252 41.1225699,12.0135178 41.2903794,12.3243355 C41.4135299,12.552359 41.1289981,12.9028773 41.6019772,13.0172283 C41.9413177,13.0986653 42.4751955,12.7203228 42.6880023,12.4987464 C43.0615137,12.1092062 43.3869829,11.676233 43.0686185,10.9504261 C42.8838928,10.5656365 42.193032,10.3104673 41.5055544,10.2904474 C40.2669445,10.2544794 39.2154287,10.6810055 37.7108949,11.1037991 C38.4406631,9.6073949 38.6216673,9.20835379 39.4478583,8.54905373 C40.2740494,7.89009298 40.6868065,6.78424691 40.0835721,6.32718196 C39.2577194,5.70215328 38.1104574,6.35806014 37.3718926,7.51480432 C36.3958234,9.09502069 35.1653333,11.7064326 35.1683782,11.7064326 C35.1683782,11.7064326 34.3002348,11.8869512 32.9026119,11.7125404 C32.0341302,11.6049757 31.3815002,11.9073104 31.2461699,12.6371892 C31.1179446,13.3297427 31.677535,13.4790438 32.4336927,13.5716783 C32.9134383,13.6307201 33.7430126,13.6297022 34.2430578,13.5957701 C34.2393362,13.5947521 32.6167268,16.7680791 31.9867646,17.9618092 C31.1791815,19.4785726 29.9365117,20.8236397 28.499643,21.9427193 C27.0637893,23.0611203 25.8671318,23.1815791 25.7209751,22.6641151 C25.3082179,21.2155551 27.4471122,17.8311707 27.9444507,16.8976996 C28.1839852,16.4402953 28.1125985,15.9917134 27.627778,15.689718 C27.1026967,15.3626128 26.5373547,15.3646488 26.0258065,15.732133 C25.7808587,15.9075618 25.6157559,16.3914331 25.36235,16.6394765 C24.5310841,15.1413758 22.9270826,15.5675625 21.6796762,16.1260843 C19.1950133,17.2339663 17.3338843,19.5627241 16.3490186,21.2498265 C15.3631379,22.9372682 14.8069307,23.4923968 13.5825304,24.4452093 C12.6419854,25.1767846 11.466304,26.0586791 10.8471682,25.1058666 C9.51957872,23.0841941 12.5032719,19.1311082 12.3513637,18.0401923 C12.2880968,17.6065404 10.9594923,16.6761232 9.31759836,17.520353 C9.18801967,17.5933069 6.72433289,18.4439839 3.28051695,23.0054717 C3.59042317,21.655654 4.26199942,19.7069354 4.2630144,19.7069354 C4.2616611,19.7059174 5.84096484,18.4545028 6.32172547,18.0306913 C9.08753697,15.5740096 11.5383674,13.1363299 13.1484587,9.92398109 C13.5618926,9.09875322 13.9154428,8.25723795 14.1272346,7.39061295 C14.1603905,7.25624196 14.1894865,7.12153166 14.2155376,6.98546407 C14.2906459,6.59151276 14.3349665,6.19281097 14.3346282,5.78698345 C14.3349665,5.58576629 14.3248167,5.38251321 14.3038406,5.17790284 C14.2913225,5.05880129 14.2649331,4.94343226 14.2287323,4.83349236 C13.9550269,4.00215671 13.0357963,3.46060092 12.0113465,3.65876419 C11.3133809,3.7934745 10.6093254,4.09513058 10.0243605,4.46363283 C9.61870811,4.71914129 9.24925659,5.0031527 8.90484117,5.30650538 C8.58478518,5.58848086 8.28638203,5.88742237 8.00624846,6.19993671 C7.59179965,6.66141282 7.21761157,7.1517312 6.85932479,7.65053258 C6.80789931,7.72246857 6.75309057,7.7920293 6.70268006,7.86362597 C6.6861021,7.88737841 6.6688475,7.9101129 6.65226955,7.93386535 C4.24372984,11.3844173 2.80449288,15.1586811 1.69512335,19.0262581 C0.87705213,21.8785877 0.287350668,24.7604382 0.129690954,27.6979372 C0.162170208,28.3524868 0.360767316,29.106118 1.10406858,29.1726249 Z M21.7835422,18.1782958 C23.375364,17.2047848 24.3311337,17.6951031 23.8547713,18.8437036 C23.3797622,19.9929827 22.0051454,21.7757735 20.570645,22.9834158 C18.8560111,24.4289219 17.9963258,24.453353 17.9912509,23.559243 C17.9797478,21.8219212 20.1886755,19.1504495 21.7835422,18.1782958 L21.7835422,18.1782958 Z M4.58780694,17.0768609 C5.74149712,13.813614 7.08126637,10.6077122 9.25534646,7.71636079 C9.31049352,7.64306753 9.36361064,7.5687563 9.42011101,7.49614168 C9.44244049,7.46729942 9.46882989,7.43506396 9.49318933,7.4045251 C9.83895806,6.9729092 10.3823089,6.41099417 10.9195699,6.02111471 C11.3864592,5.68247268 11.8462436,5.47514775 12.1595331,5.60442893 C12.2867435,5.65668431 12.3774148,5.76492761 12.4325618,5.92033647 C12.528308,6.18975709 12.5076701,6.61255065 12.380798,7.14494478 C12.351702,7.26642158 12.322606,7.38857702 12.282007,7.52226937 C12.0692002,8.21855539 11.6973804,9.06753571 11.1550445,10.0261166 C9.74659518,12.5007823 6.64617969,15.7304364 4.53908806,17.3673194 C4.55566601,17.2631479 4.55634266,17.1661022 4.58780694,17.0768609 L4.58780694,17.0768609 Z" id="hatchery_logo_orange" fill="#FF550C"></path>
    </g>
</svg>