<svg width="981" height="386" viewBox="0 0 981 386" xmlns="http://www.w3.org/2000/svg"><g fill="#330070" fill-rule="evenodd"><path d="M201.7 138l-11.2 14.4H0v-19.6h57.6v5.2h144zm-22 28.3L164.4 186H0v-19.7h179.7zM0 119V99.2h57.6V119H0zm0-33.6V65.8h57.6v19.6H0zM0 52V32.2h57.6V52H0zm0-33.6V0h57.6v18.4H0zM417.7 0l-14 18.4H191.2c1.6-1.4 3.3-2.7 5.2-4C210.5 4.8 228 0 249 0h168.7zm-25 32.3l-12 16H249c-5 0-8 1-9.5 3.6H174c.4-7.3 2.3-13.8 5.6-19.7h213.2zM369 65.8c11.6 2.6 22 7.3 31.2 14 2.4 1.7 4.6 3.6 6.7 5.6H184c-4.7-5.8-7.8-12.4-9.2-19.6h194zm48.5 33.5c3.2 6 5 12.5 5.8 19.6h-55.8c-1.6-2.2-4-4-7.6-5.3-4.7-1.7-10-2.6-16.3-2.6H249c-19 0-35-3.8-48.4-11.7h217zm5.6 33.5c-.8 7-3 13.6-6.6 19.6H199.7L211 138h132.7c6 0 11.4-1 16.2-3l4-2.2h59zm-18.7 33.5c-1.4 1.2-2.8 2.3-4.4 3.4-14.8 10.8-33.6 16.2-56.2 16.2h-170l15-19.7h215.5z"/><path d="M631.5 99.3c-.6 6.8-1.8 13.4-3.8 19.6H566c4.6-5.8 7.3-12.3 8.2-19.7h57.3zm-57.7-14c-1.3-7.3-4.6-13.8-9.7-19.5h64.3c1.8 6.2 3 12.7 3.3 19.6h-57.8zm-31-33.4c-7-2.6-14.7-3.8-23.2-3.8H395l12.2-16h201c6 6 10.8 12.6 14.5 19.7h-80zm-125-33.6l14-18.4h87.8c28 0 51.7 6 71 18.4H418zm204 114.4c-4 7-8.8 13.5-14.7 19.6H395v-19.6h58v5.2h66.6c10.4 0 19.6-1.8 27.6-5.2h74.5zm-226.7-14V99.4h58V119h-58zm0-33.4V70h58v15.4h-58zm195.3 81c-19.5 13-43 19.5-70.7 19.5H395v-19.7h195.3zM954.2 354.8V277h8.4c5.4 0 9.7 1.8 13 5.5 3.2 3.6 4.8 8.7 4.8 15V355h-26.2zM921.8 354.8V277H948v77.8M856.4 369.5v-1.7c0-3.6.6-6.7 2.2-9.4 1.5-2.7 3.6-4.6 6.2-5.7 1.7-.7 3.5-1 5.2-1 3.8 0 7 1.5 9.4 4.6 2.5 3 3.8 7 3.8 12s-1.3 9-3.7 12c-2.5 3.2-5.6 4.8-9.5 4.8-1.7 0-3.4-.3-5-1-2.5-1-4.5-2.8-6.2-5.4-1.6-2.6-2.4-5.6-2.4-9zM883.2 276.7V350h-4c-8.3 0-14.6-2.4-19-7.2-4.3-4.7-7-12-8.3-22-.5-3.4-.7-6.3-.7-8.8 0-10.6 2.5-19 7.6-25.6 5-6.5 11.7-9.7 20-9.7h4.2zM883.5 384c1-1 2-2.2 2.7-3.6 1.8-3.2 2.7-7.3 2.7-12.5v-91.3H915v77c0 9.8-2.3 17.4-7 22.8-4.7 5.4-11.3 8-20 8h-2.5l-2.2-.5zM818 260.3c0-4 1.2-7.4 3.6-10.2 2.3-2.8 5.5-4.2 9.5-4.2s7.2 1.3 9.6 4c2.5 2.5 3.7 5.7 3.7 9.5s-1 7-3.3 9.8c-2.3 3-5.2 4.3-8.7 4.3-4 0-7.5-1.2-10.2-3.6-2.6-2.4-4-5.5-4-9.4zM818.4 354.8V277H844v77.8M782.2 277H810v35M780.6 277l-.6 1.4c-.6 1.4-1 2.7-1 4 0 1.3.6 2.6 1.6 3.8l27 34 1.8 2.3c1.6 2.5 2.7 5 3.5 7.7.6 2.6 1 5 1 7.6 0 4-1 7.7-2.8 10.7-1.8 3-4.4 5.2-7.7 6.3h-12.3l.7-1.2c.6-1.5 1-2.7 1-3.6 0-1-.8-2.5-2.3-4.5L769.3 318c-5-6.3-7.3-12.6-7.3-18.7 0-1.8 0-3.2.2-4 .8-5.3 2.6-9.5 5.4-12.7 2.8-3.2 6.3-5 10.5-5.6h2.6zM762.8 354.8v-34l26.6 34M733 315.4V277c.6-.2 1.3-.3 2.2-.3 6.4 0 11.8 3 16 9 4.4 6.2 6.5 14.3 6.5 24.5v5.2H733z"/><path d="M726.6 276.7V347c1.5.4 3 .6 4.5.6 8.6 0 16.2-5.7 22.8-17l1.7-3.3V341c-1.5 2.6-3.6 5-6 7.3-6 5.5-12.4 8.3-19.4 8.3-2.4 0-5-.4-8-1.2-6.5-2-11.6-5.3-15.3-9.8-3.6-4.5-6.2-11-7.7-19.2l-.7-5.2c-.2-2-.3-4.3-.3-6.7 0-4.3.5-8.6 1.3-12.8.8-4.3 2.3-8.3 4.5-12 3.3-5.8 8-9.6 14.4-11.6 2-.5 5-1 8.4-1.3zM654.6 355V246.3h4c10 0 18.2 4.8 24.4 14.4 6.6 10 10 24 10 41.3 0 16.4-3.5 29.4-10.2 39-6.4 9.3-14.7 14-24.8 14h-3.4zM616 355V246.3h32.4V355M582.5 277h27.2l-14.2 45-13-45M548.2 277H576l16.3 54.2-7.3 23.6h-15L548 277M514 277h27.4l15 53-7.8 24.8h-13L514 277M480.5 354.8V276h2.3c.7 0 1.6 0 2.6.3 6.2 1 11.3 4.2 15.6 9.3 4.2 5 7 11.8 8.3 20 .6 4.4 1 8.3 1 11.8 0 10.2-2.4 18.6-7 25-4.7 6.6-11 10.5-18.7 12l-4 .4zM474.2 276v78.8c0 .5-.2.7-.8.6-1.8-.6-3-1-3.4-1-7.8-1.6-14-5.6-18.6-12.2-4.7-6.5-7-15-7-25.3 0-3.4.3-7 1-11.3 1.3-8.3 4-15 8.3-20 4.3-5.2 9.5-8.3 15.5-9.4l2.5-.3h2.5zM413 354.8V277h6c4.3 0 7.5.5 9.7 1.5 2.3 1 4.3 2.8 6 5.3 1.6 2 2.7 4.3 3.3 7 .7 2.5 1 6 1 10v54h-26zM380.7 354.8v-108h26v108M341 246.7h32.8v49M331 246.7h8.6c-2 1.3-3 3.3-3 6 0 2 .5 4.4 1.8 7l.7 1.4 31 47.3c4.7 7 7 13.8 7 20.7 0 3.2-.4 6.3-1.4 9.3-1.6 5-4 9-7.4 12-3.3 3-6.7 4.5-10.2 4.5h-8.6l1.3-1.5c1.3-2 2-3.8 2-5.5 0-1.5-.6-3.4-1.8-5.7l-1-1.2-33-50.3-1.5-2.2c-.4-.7-.8-1.7-1.2-3-2-4.4-3-9-3-13.8 0-3.5.7-7 1.8-10.3 3.8-9.7 9.8-14.5 18-14.5zM313.6 354.8v-53.3l34.6 53.3M295 276c3.7 0 6.8 1.5 9.5 4.3s4 6.3 4 10.5c0 4.4-1.2 8.2-3.5 11.4-2.3 3.2-5.3 4.8-8.8 4.8-3.6 0-6.8-1.4-9.5-4.2-2.6-2.8-4-6.3-4-10.5 0-4.4 1.2-8.2 3.5-11.4 2.4-3.3 5.3-5 8.8-5zM254.8 354.8V277H281v77.8M224.3 315.4V277c.5-.2 1.2-.3 2-.3 6.6 0 12 3 16.2 9 4.3 6.2 6.5 14.3 6.5 24.5v5.2h-24.7z"/><path d="M217.8 276.7V347c1.5.4 3 .6 4.5.6 8.5 0 16-5.7 22.8-17l1.7-3.3V341c-1.5 2.6-3.5 5-6 7.3-6 5.5-12.4 8.3-19.4 8.3-2.4 0-5-.4-8-1.2-6.6-2-11.7-5.3-15.3-9.8-3.6-4.5-6.2-11-7.7-19.2l-.7-5.2c-.2-2-.3-4.3-.3-6.7 0-4.3.4-8.6 1.2-12.8 1-4.3 2.4-8.3 4.5-12 3.4-5.8 8.2-9.6 14.4-11.6 2-.5 5-1 8.4-1.3zM154 277h27.7v35M152.3 277l-.7 1.4c-.5 1.4-.8 2.7-.8 4 0 1.3.5 2.6 1.5 3.8l27 34 1.7 2.3c1.6 2.5 2.8 5 3.5 7.7.8 2.6 1.2 5 1.2 7.6 0 4-1 7.7-2.8 10.7-2 3-4.5 5.2-7.8 6.3H163l.5-1.2c.8-1.5 1-2.7 1-3.6 0-1-.6-2.5-2-4.5L141 318c-5-6.3-7.4-12.6-7.4-18.7 0-1.8 0-3.2.3-4 .6-5.3 2.4-9.5 5.3-12.7 2.8-3.2 6.3-5 10.5-5.6h2.5zM134.5 354.8v-34l26.5 34M76.6 281c2.4-2.4 5.2-3.5 8.2-3.5 3.5 0 6.6 1.4 9 4.3 2.6 3 4 6.6 4 11 0 4-1.2 7.5-3.5 10.5-2.7 3.7-6 5.5-10.2 5.5-2.3 0-4.5-.7-6.4-2-2-1.6-3.4-3.8-4.3-6.7-1-2.8-1.3-5.3-1.3-7.4 0-2.6.4-5 1.2-6.8.8-2 2-3.6 3.4-5z"/><path d="M95 278.8l5.2-1.3c2-.4 4.3-.6 6.5-.6 7 0 12 2 15.8 6.2 3.7 4.2 5.5 10 5.5 17.2v54.4h-26.3v-62.6c0-2.3-.4-4.5-1-6.5-1.4-3.2-3.2-5.5-5.6-7zM88.2 312.3h7v42.5h-9.9c-6-.8-10.4-3-13.5-6.4-3-3.4-4.6-8-4.6-14v-3.6l.6-3c1-5 3-8.6 6.5-11.4 3.4-2.7 8-4 14-4zM35 354.8l28-52.4v52.4M.8 354.8v-108h32.5v108H.8"/></g></svg>