<?xml version="1.0" encoding="UTF-8" standalone="no"?>
<svg width="981px" height="386px" viewBox="0 0 981 386" version="1.1" xmlns="http://www.w3.org/2000/svg" xmlns:xlink="http://www.w3.org/1999/xlink">
    <!-- Generator: Sketch 3.8.3 (29802) - http://www.bohemiancoding.com/sketch -->
    <title>lsd</title>
    <desc>Created with Sketch.</desc>
    <defs></defs>
    <g id="Page-1" stroke="none" stroke-width="1" fill="none" fill-rule="evenodd">
        <g id="lsd" fill="#330070">
            <g id="Ebene_x0020_1">
                <g id="Group">
                    <path d="M201.74765,137.999533 L190.549973,152.364381 L0.115977285,152.364381 L0.115977285,132.798235 L57.614616,132.798235 L57.614616,137.999533 L201.747509,137.999533 L201.748014,137.999533 L201.74765,137.999533 Z M179.687215,166.296789 L164.360109,185.957343 L0.11647231,185.957343 L0.11647231,166.296789 L179.687498,166.296789 L179.686993,166.296789 L179.687215,166.296789 Z M0.116189439,118.865827 L0.116189439,99.299186 L57.6153939,99.299186 L57.6153939,118.865827 L0.116189439,118.865827 L0.116189439,118.865827 Z M0.116189439,85.3667782 L0.116189439,65.8006322 L57.6153939,65.8006322 L57.6153939,85.3667782 L0.116189439,85.3667782 L0.116189439,85.3667782 Z M0.116189439,51.8687194 L0.116189439,32.3020784 L57.6153939,32.3020784 L57.6153939,51.8687194 L0.116189439,51.8687194 L0.116189439,51.8687194 Z M0.116189439,18.3696705 L0.116189439,0.0547356213 L57.6153939,0.0547356213 L57.6153939,18.3696705 L0.116189439,18.3696705 L0.116189439,18.3696705 Z" id="Shape"></path>
                    <path d="M417.693113,0.00636460713 L403.553572,18.3692462 L191.274831,18.3692462 C192.893768,17.0109613 194.62231,15.7041943 196.465522,14.447439 C210.562136,4.82125354 228.093588,0.00635753534 249.066454,0.00635753534 L417.693891,0.00635753534 L417.69288,0.00635753534 L417.693113,0.00636460713 Z M392.824683,32.3017248 L380.564258,48.2228603 L249.065817,48.2228603 C244.14133,48.2228603 240.943376,49.4351694 239.459786,51.8683658 L173.911405,51.8683658 C174.401883,44.7142645 176.284491,38.1894814 179.559739,32.3017248 L392.824995,32.3017248 L392.824489,32.3017248 L392.824683,32.3017248 Z M368.875091,65.8002786 C380.639997,68.4375526 391.063314,73.0655484 400.15664,79.6812039 C402.584787,81.4951169 404.827555,83.3863175 406.87787,85.3669196 L183.951141,85.3669196 C179.261536,79.5645194 176.196928,73.0398071 174.750253,65.8002786 L368.875013,65.8002786 L368.875013,65.8002786 L368.875091,65.8002786 Z M417.499204,99.2988324 C420.669889,105.278529 422.607558,111.80274 423.312212,118.865968 L367.465826,118.865968 C365.94438,116.790901 363.434406,115.076503 359.934374,113.716697 C355.292758,111.994717 349.879285,111.135998 343.690482,111.135998 L249.065746,111.135998 C230.078497,111.135998 213.915931,107.186907 200.564894,99.2993133 L417.498992,99.2993133 L417.499497,99.2988082 L417.499204,99.2988324 Z M423.121776,132.797881 C422.187289,139.907077 419.930887,146.435325 416.355591,152.365017 L199.717093,152.365017 L210.862722,137.950667 L343.73309,137.950667 C349.750168,137.950667 355.1222,136.921722 359.934056,134.855248 C361.444384,134.226364 362.771864,133.540398 363.913958,132.79786 L423.121493,132.79786 L423.121998,132.79786 L423.121776,132.797881 Z M404.270446,166.29693 C402.900542,167.452156 401.459914,168.574045 399.944027,169.664613 C385.161449,180.493002 366.424258,185.90801 343.77842,185.90801 L173.776935,185.90801 L188.941884,166.296958 L404.26998,166.296958 L404.270485,166.296958 L404.270446,166.29693 Z" id="Shape"></path>
                    <path d="M631.484509,99.299186 C630.932405,106.132554 629.656453,112.655243 627.662209,118.866322 L566.054297,118.866322 C570.595897,113.238694 573.323103,106.713953 574.226241,99.299186 L631.484439,99.299186 L631.484439,99.299186 L631.484509,99.299186 Z M573.837363,85.3672732 C572.479078,77.980298 569.22151,71.4591215 564.060124,65.8006322 L628.295205,65.8006322 C630.119725,71.973799 631.228984,78.4944875 631.630054,85.3672732 L573.83737,85.3672732 L573.837363,85.3672732 Z M542.65687,51.8687194 C535.75683,49.4441081 528.083405,48.2262476 519.640258,48.2262476 L395.104698,48.2262476 L407.196956,32.3020713 L608.181349,32.3020713 C614.136804,38.2721718 618.961791,44.7918349 622.663871,51.8687123 L542.656516,51.8687123 L542.657021,51.8687123 L542.65687,51.8687194 Z M417.776913,18.3696705 L431.719434,0.00982978212 L519.640117,0.00982978212 C547.620627,0.00982978212 571.299016,6.1334941 590.665596,18.3696705 L417.775994,18.3696705 L417.776499,18.3696705 L417.776913,18.3696705 Z M621.698926,132.798235 C617.897339,139.784148 613.024391,146.308881 607.08105,152.364876 L395.104981,152.364876 L395.104981,132.798235 L452.860254,132.798235 L452.860254,137.954578 L519.640117,137.954578 C530.010891,137.954578 539.189573,136.232598 547.171569,132.798235 L621.698997,132.798235 L621.698491,132.798235 L621.698926,132.798235 Z M395.105476,118.866322 L395.105476,99.299186 L452.861244,99.299186 L452.861244,118.866322 L395.105476,118.866322 L395.105476,118.866322 Z M395.105476,85.3672732 L395.105476,69.8850835 L452.861244,69.8850835 L452.861244,85.3672732 L395.105476,85.3672732 L395.105476,85.3672732 Z M590.253524,166.296789 C570.752084,179.375561 547.217677,185.911871 519.641248,185.911871 L395.106395,185.911871 L395.106395,166.296789 L590.254443,166.296789 L590.253938,166.296789 L590.253524,166.296789 Z" id="Shape"></path>
                    <path d="M954.223836,354.770273 L954.223836,277.008918 L962.604892,277.008918 C968.025416,277.008918 972.341751,278.835461 975.552342,282.488038 C978.762933,286.141627 980.367726,291.17014 980.367726,297.574703 L980.367726,354.770315 L954.223829,354.770315 L954.223829,354.770315 L954.223836,354.770273 Z" id="Shape"></path>
                    <polygon id="Shape" points="921.827986 354.770273 921.827986 277.008918 947.972378 277.008918 947.972378 354.770273"></polygon>
                    <path d="M856.399825,369.486659 C856.316984,368.786047 856.275058,368.236466 856.275058,367.834895 C856.275058,364.232831 857.045882,361.079826 858.589554,358.378432 C860.132215,355.676508 862.196165,353.774198 864.780903,352.674535 C866.532181,351.972913 868.283961,351.623364 870.035239,351.623364 C873.787324,351.623364 876.915076,353.174609 879.416458,356.276599 C881.918357,359.378588 883.169052,363.382753 883.169052,368.286542 C883.169052,373.190825 881.939063,377.218207 879.478591,380.370173 C877.019123,383.523178 873.870665,385.099175 870.035211,385.099175 C868.283933,385.099175 866.574074,384.749121 864.905642,384.049015 C862.488102,383.047855 860.465063,381.246565 858.838552,378.644148 C857.213052,376.041731 856.399797,372.989753 856.399797,369.48668 L856.399825,369.486659 Z" id="Shape"></path>
                    <path d="M883.173605,276.711903 L883.173605,349.969238 L879.275538,349.969238 C870.935852,349.969238 864.598047,347.592616 860.219621,342.839393 C855.861888,338.08513 853.089776,330.704208 851.901151,320.696642 C851.483915,317.393616 851.275298,314.491652 851.275298,311.990283 C851.275298,301.381615 853.819118,292.85 858.906249,286.393955 C863.992886,279.939437 870.727729,276.712185 879.129011,276.712185 L883.17357,276.712185 L883.17357,276.712185 L883.173605,276.711903 Z" id="Shape"></path>
                    <path d="M883.54841,384.047466 C884.548565,383.046306 885.424958,381.845107 886.174567,380.444391 C888.009695,377.216121 888.927514,373.062932 888.927514,367.934402 L888.927514,276.71261 L915.196652,276.71261 L915.196652,353.79861 C915.196652,363.530377 912.86094,371.086085 908.191546,376.515731 C903.521643,381.945349 896.850453,384.648285 888.176342,384.648285 C887.260044,384.648285 886.445777,384.571506 885.737587,384.422998 C885.028386,384.27247 884.298981,384.146694 883.548367,384.047689 L883.548367,384.047689 L883.54841,384.047466 Z" id="Shape"></path>
                    <path d="M818.000028,260.34779 C818.000028,256.34516 819.18859,252.917889 821.56522,250.065414 C823.941842,247.213971 827.131217,245.787486 831.133841,245.787486 C835.054135,245.787486 838.223306,247.088192 840.640866,249.6901 C843.059919,252.292015 844.269195,255.495025 844.269195,259.298606 C844.269195,263.100702 843.163973,266.378949 840.95404,269.129873 C838.744107,271.882821 835.846698,273.259294 832.260765,273.259294 C828.174284,273.259294 824.775775,272.058102 822.065301,269.655717 C819.355294,267.253835 818.000035,264.151343 818.000035,260.347762 L818.000028,260.34779 Z" id="Shape"></path>
                    <polygon id="Shape" points="818.374833 354.770273 818.374833 277.008918 843.893867 277.008918 843.893867 354.770273"></polygon>
                    <polygon id="Shape" points="782.223864 277.008918 809.993282 277.008918 809.993282 312.060718"></polygon>
                    <path d="M780.597354,277.008918 L779.972511,278.36064 C779.388078,279.761356 779.096112,281.061051 779.096112,282.262752 C779.096112,283.664479 779.596188,284.965186 780.597353,286.165367 L807.637811,320.068002 L809.368885,322.494636 C810.952965,324.996535 812.120312,327.548438 812.870932,330.150339 C813.621553,332.752756 813.996357,335.30466 813.996357,337.807032 C813.996357,341.910181 813.080059,345.487982 811.244421,348.539952 C809.410304,351.59193 806.825057,353.66851 803.489218,354.769693 L791.230278,354.769693 L791.855626,353.569003 C792.605737,352.06726 792.981553,350.867079 792.981553,349.965928 C792.981553,348.96527 792.230431,347.464539 790.729692,345.462212 L769.339025,317.991365 C764.419085,311.661615 761.959122,305.431379 761.959122,299.301131 C761.959122,297.499848 762.041963,296.149639 762.209159,295.248495 C762.959271,290.01891 764.752478,285.790972 767.587754,282.587948 C770.423541,279.360689 773.926097,277.509904 778.095933,277.008811 L780.597323,277.008811 L780.597323,277.008811 L780.597354,277.008918 Z" id="Shape"></path>
                    <polygon id="Shape" points="762.833028 354.770273 762.833028 320.693389 789.352224 354.770273"></polygon>
                    <path d="M733.06081,315.444073 L733.06081,276.862956 C733.560887,276.763951 734.269584,276.713438 735.187395,276.713438 C741.609079,276.713438 746.966444,279.740162 751.261069,285.795661 C755.556677,291.850623 757.703968,299.981169 757.703968,310.189291 L757.703968,313.341794 L757.703968,315.444137 L733.060846,315.444137 L733.060846,315.444137 L733.06081,315.444073 Z" id="Shape"></path>
                    <path d="M726.554767,276.711903 L726.554767,347.11655 C728.056511,347.417101 729.557752,347.567629 731.059495,347.567629 C739.564802,347.567629 747.153394,341.863222 753.826119,330.453412 L755.451116,327.300909 L755.451116,341.112107 C753.950886,343.614006 751.949069,346.01639 749.447672,348.317761 C743.526565,353.822135 737.062925,356.574566 730.057826,356.574566 C727.639777,356.574566 724.971699,356.174 722.05207,355.373374 C715.464199,353.372059 710.355831,350.094286 706.728995,345.565797 C703.101169,341.062583 700.536635,334.682319 699.035387,326.425514 C698.785349,324.924782 698.556526,323.172995 698.347909,321.17168 C698.138786,319.144602 698.03473,316.943254 698.03473,314.541378 C698.03473,310.213446 698.451965,305.909769 699.285934,301.65609 C700.119902,297.378162 701.620634,293.39978 703.789148,289.671959 C707.125008,283.94179 711.920216,280.089194 718.175211,278.062633 C720.259874,277.462036 723.053731,277.011461 726.555277,276.71142 L726.554771,276.711925 L726.554767,276.711903 Z" id="Shape"></path>
                    <path d="M654.630464,354.925852 L654.630464,246.388793 L656.819684,246.388793 L658.633597,246.388793 C668.641163,246.388793 676.771737,251.193569 683.026236,260.800597 C689.614107,270.909219 692.908562,284.669359 692.908562,302.083631 C692.908562,318.395695 689.531282,331.4058 682.776178,341.114301 C676.354997,350.321271 668.099182,354.925499 658.008239,354.925499 L655.881654,354.925499 L654.63045,354.925499 L654.630464,354.925852 Z" id="Shape"></path>
                    <polygon id="Shape" points="615.85162 354.925852 615.85162 246.388793 648.374762 246.388793 648.374762 354.925852"></polygon>
                    <polygon id="Shape" points="582.451576 277.008918 609.721372 277.008918 595.503051 321.919283 582.451576 277.008918"></polygon>
                    <polygon id="Shape" points="548.176045 277.008918 575.947442 277.008918 592.334255 331.201496 584.952796 354.769707 569.942436 354.769707 548.175974 277.009059"></polygon>
                    <polygon id="Shape" points="513.901221 277.008918 541.42157 277.008918 556.34912 329.850785 548.592856 354.770273 535.688332 354.770273 513.901151 277.008918 513.901151 277.008918"></polygon>
                    <path d="M480.501885,354.770273 L480.501885,275.95805 L482.754248,275.95805 C483.504869,275.95805 484.380257,276.058066 485.380405,276.257591 C491.55155,277.358767 496.74328,280.461265 500.955023,285.565546 C505.166272,290.669352 507.939423,297.375428 509.273494,305.68124 C509.940767,309.984422 510.274654,313.888047 510.274654,317.390066 C510.274654,327.598189 507.939953,335.954989 503.269039,342.460537 C498.599136,348.965066 492.386056,352.918223 484.629863,354.319921 L480.501962,354.769485 L480.501962,354.76999 L480.501885,354.770273 Z" id="Shape"></path>
                    <path d="M474.248305,275.962293 L474.248305,354.773809 C474.248305,355.27439 473.955836,355.474421 473.372916,355.374406 C471.620627,354.773809 470.4947,354.423251 469.994625,354.324246 C462.238927,352.821491 456.025798,348.794109 451.355944,342.239059 C446.686041,335.684525 444.350838,327.251894 444.350838,316.944767 C444.350838,313.641741 444.685233,309.888638 445.351998,305.685989 C446.686041,297.379681 449.479898,290.673578 453.732559,285.569799 C457.985227,280.465483 463.156704,277.363487 469.244521,276.261844 C469.994633,276.162334 470.807386,276.08707 471.683785,276.037567 C472.559173,275.98756 473.41435,275.962303 474.248319,275.962303 L474.248319,275.962303 L474.248305,275.962293 Z" id="Shape"></path>
                    <path d="M412.952895,354.770273 L412.952895,277.008918 L419.082111,277.008918 C423.251939,277.008918 426.462509,277.510004 428.714378,278.509649 C430.966239,279.510307 433.009476,281.262087 434.843593,283.764488 C436.345337,285.766815 437.408127,288.06767 438.033471,290.669585 C438.659324,293.272002 438.971996,296.674033 438.971996,300.877708 L438.971996,354.770301 L412.952845,354.770301 L412.952845,354.770301 L412.952895,354.770273 Z" id="Shape"></path>
                    <polygon id="Shape" points="380.679386 354.770273 380.679386 246.6851 406.698537 246.6851 406.698537 354.770273"></polygon>
                    <polygon id="Shape" points="340.900592 246.6851 373.799529 246.6851 373.799529 295.773901"></polygon>
                    <path d="M331.017771,246.6851 L339.648886,246.6851 C337.564222,247.985807 336.522145,250.037629 336.522145,252.840079 C336.522145,254.841394 337.146988,257.142758 338.398191,259.745175 L339.148302,261.096898 L370.129301,308.258636 C374.737071,315.164235 377.052077,322.069339 377.052077,328.974938 C377.052077,332.177445 376.551495,335.279435 375.550333,338.281408 C373.965751,343.260956 371.527499,347.26406 368.232025,350.266034 C364.938596,353.269018 361.540603,354.76975 358.038046,354.76975 L349.406437,354.76975 L350.657132,353.269018 C351.991174,351.367719 352.658949,349.540673 352.658949,347.8394 C352.658949,346.338668 352.096237,344.43686 350.949599,342.134993 L350.114627,340.833785 L316.882821,290.519515 C316.382239,289.71838 315.923582,288.968269 315.507358,288.268162 C315.089618,287.567045 314.672385,286.6169 314.255652,285.415199 C312.337685,280.912494 311.378949,276.257731 311.378949,271.454504 C311.378949,267.951445 311.962876,264.548403 313.129718,261.245886 C316.799472,251.538375 322.761985,246.685079 331.0178,246.685079 L331.0178,246.685079 L331.017771,246.6851 Z" id="Shape"></path>
                    <polygon id="Shape" points="313.630372 354.770273 313.630372 301.478286 348.155325 354.770273"></polygon>
                    <path d="M294.990559,276.110801 C298.660314,276.110801 301.829478,277.513539 304.49808,280.314475 C307.166668,283.117427 308.501213,286.620486 308.501213,290.823644 C308.501213,295.226333 307.332855,299.029956 304.998656,302.232485 C302.663454,305.434993 299.744822,307.03625 296.241735,307.03625 C292.572991,307.03625 289.404329,305.635025 286.734709,302.832575 C284.066623,300.030126 282.732078,296.528079 282.732078,292.324397 C282.732078,287.920697 283.899425,284.118085 286.234635,280.916122 C288.569837,277.712101 291.488972,276.110843 294.990496,276.110843 L294.990496,276.110843 L294.990559,276.110801 Z" id="Shape"></path>
                    <polygon id="Shape" points="254.837667 354.770273 254.837667 277.008918 280.981564 277.008918 280.981564 354.770273"></polygon>
                    <path d="M224.315133,315.444073 L224.315133,276.862956 C224.814704,276.763951 225.523397,276.713438 226.441216,276.713438 C232.862899,276.713438 238.220265,279.740162 242.515385,285.795661 C246.810483,291.850623 248.957781,299.981169 248.957781,310.189291 L248.957781,313.341794 L248.957781,315.444137 L224.315154,315.444137 L224.315154,315.444137 L224.315133,315.444073 Z" id="Shape"></path>
                    <path d="M217.809797,276.711903 L217.809797,347.11655 C219.310529,347.417101 220.81177,347.567629 222.313011,347.567629 C230.818884,347.567629 238.408396,341.863222 245.079635,330.453412 L246.706146,327.300909 L246.706146,341.112107 C245.205414,343.614006 243.203088,346.01639 240.701698,348.317761 C234.7811,353.822135 228.317516,356.574566 221.311852,356.574566 C218.893803,356.574566 216.225215,356.174 213.30659,355.373374 C206.71872,353.372059 201.610352,350.094286 197.983021,345.565797 C194.355195,341.062583 191.790661,334.682319 190.289413,326.425514 C190.039375,324.924782 189.810552,323.172995 189.601934,321.17168 C189.393316,319.144602 189.28926,316.943254 189.28926,314.541378 C189.28926,310.213446 189.705991,305.909769 190.539955,301.65609 C191.373923,297.378162 192.875667,293.39978 195.04418,289.671959 C198.379029,283.94179 203.175249,280.089194 209.429182,278.062633 C211.513846,277.462036 214.307703,277.011461 217.809744,276.71142 L217.809744,276.711925 L217.809797,276.711903 Z" id="Shape"></path>
                    <polygon id="Shape" points="153.887926 277.008918 181.657839 277.008918 181.657839 312.060718"></polygon>
                    <path d="M152.262123,277.008918 L151.63627,278.36064 C151.052847,279.761356 150.760882,281.061051 150.760882,282.262752 C150.760882,283.664479 151.260453,284.965186 152.262123,286.165367 L179.30258,320.068002 L181.033145,322.494636 C182.617728,324.996535 183.784572,327.548438 184.535193,330.150339 C185.286315,332.752756 185.66112,335.30466 185.66112,337.807032 C185.66112,341.910181 184.744313,345.487982 182.909184,348.539952 C181.075067,351.59193 178.48982,353.66851 175.153981,354.769693 L162.895041,354.769693 L163.519883,353.569003 C164.269994,352.06726 164.646319,350.867079 164.646319,349.965928 C164.646319,348.96527 163.895197,347.464539 162.394458,345.462212 L141.003296,317.991365 C136.083356,311.661615 133.623393,305.431379 133.623393,299.301131 C133.623393,297.499848 133.706739,296.149639 133.873431,295.248495 C134.624051,290.01891 136.417251,285.790972 139.252535,282.587948 C142.087819,279.360689 145.589866,277.509904 149.760218,277.008811 L152.262117,277.008811 L152.262117,277.008811 L152.262123,277.008918 Z" id="Shape"></path>
                    <polygon id="Shape" points="134.499211 354.770273 134.499211 320.693389 161.018408 354.770273"></polygon>
                    <path d="M76.5805795,280.912543 C78.9991302,278.609666 81.7510661,277.458987 84.8368893,277.458987 C88.3389365,277.458987 91.3621249,278.910217 93.9059594,281.812173 C96.4492776,284.715141 97.7206857,288.368221 97.7206857,292.77139 C97.7206857,296.774021 96.5947584,300.277101 94.3428967,303.278579 C91.5909608,306.982172 88.1717525,308.834478 84.0857666,308.834478 C81.6672159,308.834478 79.4992115,308.108608 77.5812371,306.657379 C75.6632699,305.20615 74.2458789,303.029553 73.3280601,300.126585 C72.4112526,297.224628 71.9520957,294.722729 71.9520957,292.620874 C71.9520957,290.018959 72.3693311,287.742354 73.2027905,285.790541 C74.0367591,283.838728 75.1626864,282.212719 76.5805795,280.912522 L76.5805795,280.912522 L76.5805795,280.912543 Z" id="Shape"></path>
                    <path d="M95.0945144,278.812223 L100.223072,277.46101 C102.307736,277.060443 104.476249,276.860413 106.727602,276.860413 C113.566019,276.860413 118.81986,278.962247 122.489127,283.165921 C126.158882,287.369086 127.993501,293.12349 127.993501,300.42914 L127.993501,354.771782 L101.724363,354.771782 L101.724363,292.173325 C101.724363,289.870957 101.349053,287.718602 100.597927,285.717796 C99.3477338,282.515791 97.5131146,280.212913 95.0945639,278.812197 L95.0945639,278.812197 L95.0945144,278.812223 Z" id="Shape"></path>
                    <path d="M88.2150813,312.290056 L95.3454921,312.290056 L95.3454921,354.773314 L87.7145403,354.773314 L85.3384203,354.773314 C79.416811,353.972689 74.9141132,351.871357 71.8277737,348.443564 C68.7429618,345.040521 67.1997921,340.361503 67.1997921,334.43181 C67.1997921,332.730544 67.2412125,331.529854 67.3250638,330.829747 C67.4084098,330.128629 67.5745967,329.053215 67.8246353,327.652492 C68.7429561,322.948744 70.9114697,319.194637 74.3306781,316.442227 C77.7493844,313.66554 82.3778752,312.290078 88.2151393,312.290078 L88.2150813,312.290056 Z" id="Shape"></path>
                    <polygon id="Shape" points="34.9256402 354.770273 63.0708522 302.378949 63.0708522 354.770273"></polygon>
                    <polygon id="Shape" points="0.776411352 354.770273 0.776411352 246.6851 33.3000488 246.6851 33.3000488 354.770273 0.776411352 354.770273"></polygon>
                </g>
            </g>
        </g>
    </g>
</svg>