<?xml version="1.0" encoding="UTF-8" standalone="no"?>
<svg width="250px" height="250px" viewBox="0 0 250 250" version="1.1" xmlns="http://www.w3.org/2000/svg" xmlns:xlink="http://www.w3.org/1999/xlink">
    <!-- Generator: Sketch 3.8.3 (29802) - http://www.bohemiancoding.com/sketch -->
    <title>Blender</title>
    <desc>Created with Sketch.</desc>
    <defs>
        <circle id="path-1" cx="125" cy="125" r="125"></circle>
    </defs>
    <g id="Page-1" stroke="none" stroke-width="1" fill="none" fill-rule="evenodd">
        <g id="Blender">
            <mask id="mask-2" fill="white">
                <use xlink:href="#path-1"></use>
            </mask>
            <use id="Mask" fill="#C8C8C8" xlink:href="#path-1"></use>
            <polygon id="Shadow" fill-opacity="0.3" fill="#000000" mask="url(#mask-2)" points="120 108 190 109.5 253 190 139 272 51.5 162.5"></polygon>
            <g id="Icon" mask="url(#mask-2)">
                <g transform="translate(49.000000, 63.000000)">
                    <path d="M66.3071124,68.669105 C67.3309065,60.419939 71.7821146,53.2390335 78.0830752,48.2302361 C84.2712058,43.309335 92.3322934,40.4118045 100.902266,40.6316307 C109.459507,40.8514784 117.095247,44.1516379 122.576402,49.3718149 C128.16615,54.6863195 131.599525,62.0696007 131.483118,70.3335589 C131.345593,78.8416971 127.478398,86.6413062 121.236279,92.3397671 C114.87654,98.1359859 106.162465,101.656336 96.6899165,101.413228 C87.2130463,101.170549 79.0000427,97.2147908 73.4648147,91.1137223 C68.037563,85.1159854 65.267586,77.1457291 66.3071124,68.669105" id="path3026-3-0" fill="#FFFFFF"></path>
                    <path d="M79.0441741,69.7757396 C79.3262491,64.7109888 81.7930753,60.2465048 85.5079505,57.0818127 C89.1562986,53.973074 94.060679,52.0732297 99.4174439,52.0732297 C104.766225,52.0732297 109.673267,53.973074 113.318954,57.0818127 C117.03649,60.2465048 119.497994,64.7109888 119.78273,69.7703801 C120.064805,74.979838 117.989159,79.8141293 114.340811,83.3996513 C110.623274,87.0467006 105.338359,89.3380046 99.4174439,89.3380046 C93.4938678,89.3380046 88.1983078,87.0467006 84.4807715,83.3996513 C80.8350846,79.8141293 78.762099,74.979838 79.0441741,69.7757396" id="path3026-3" fill="#0D528A"></path>
                    <path d="M46.6055432,80.0152186 C46.6402437,82.0008153 47.2681534,85.8515266 48.2101777,88.8610069 C50.1900252,95.2309091 53.5483149,101.123599 58.223842,106.319551 C63.0191179,111.655065 68.9240663,115.945258 75.7444282,118.986895 C82.9107312,122.186531 90.6784394,123.813254 98.7468503,123.799748 C106.804617,123.77831 114.569664,122.127576 121.738628,118.906502 C128.55899,115.835494 134.458616,111.526437 139.24857,106.185563 C143.916114,100.973533 147.271742,95.0701234 149.254251,88.7002211 C150.254819,85.4791468 150.882835,82.2151963 151.135638,78.9351672 C151.38578,75.7061608 151.279337,72.4741531 150.824291,69.2425741 C149.935489,62.9423457 147.772027,57.0361495 144.443009,51.6498272 C141.393405,46.700199 137.465643,42.3644508 132.795438,38.7172943 L132.808211,38.7130067 L85.6750667,2.26823904 C85.6350439,2.23608189 85.6005563,2.20135217 85.5552114,2.17434017 C82.4603691,-0.218687586 77.2606082,-0.207968537 73.8624022,2.18720303 C70.4216188,4.60702841 70.0304392,8.61327308 73.0880263,11.1429687 L73.077382,11.1536878 L92.7321587,27.25102 L32.8178211,27.3179069 L32.7379885,27.3179069 C27.7857086,27.3200507 23.0250268,30.5925765 22.0856637,34.7301295 C21.1143675,38.9427159 24.4779795,42.4371259 29.6271797,42.4532045 L29.622922,42.4724988 L59.9885674,42.413544 L5.79822444,84.3009089 C5.73180375,84.3545042 5.65452583,84.4059556 5.59065978,84.4595509 C0.47871474,88.3988015 -1.1711582,94.9562871 2.04875512,99.1019866 C5.3139069,103.322505 12.2646619,103.330652 17.4298287,99.1255685 L47.0051317,74.753023 C47.0051317,74.753023 46.5713748,78.0411985 46.6059689,80.0162905 L46.6055432,80.0152186 Z M122.606142,91.0369739 C116.509595,97.2889666 107.980817,100.834185 98.7468503,100.85305 C89.5022397,100.874489 80.973461,97.3532809 74.8769144,91.1120072 C71.8991598,88.0703698 69.7117476,84.5733872 68.3625773,80.843158 C67.042679,77.1826027 66.5264284,73.2943747 66.8670473,69.3709883 C67.1916998,65.533783 68.322661,61.8783729 70.1348602,58.566401 C71.9124652,55.3157421 74.3580027,52.3733631 77.3836568,49.8865436 C83.3045718,45.0254548 90.8460878,42.3966079 98.736206,42.3858889 C106.631646,42.373026 114.16784,44.9825786 120.094077,49.8250163 C123.111748,52.3009023 125.559947,55.2299897 127.337552,58.4804342 C129.155073,61.7872609 130.280712,65.4291651 130.616009,69.2773038 C130.948645,73.1951163 130.435055,77.0779848 129.115157,80.744114 C127.763325,84.4822752 125.583897,87.9794723 122.606142,91.0369739 L122.606142,91.0369739 Z" id="path3028-11" fill="#F5792A"></path>
                </g>
            </g>
        </g>
    </g>
</svg>