<svg width="254" height="254" viewBox="0 0 254 254" xmlns="http://www.w3.org/2000/svg" xmlns:xlink="http://www.w3.org/1999/xlink"><defs><filter x="-50%" y="-50%" width="200%" height="200%" filterUnits="objectBoundingBox" id="a"><feOffset dy="1" in="SourceAlpha" result="shadowOffsetOuter1"/><feGaussianBlur stdDeviation="1" in="shadowOffsetOuter1" result="shadowBlurOuter1"/><feColorMatrix values="0 0 0 0 0 0 0 0 0 0 0 0 0 0 0 0 0 0 0.5 0" in="shadowBlurOuter1" result="shadowMatrixOuter1"/><feMerge><feMergeNode in="shadowMatrixOuter1"/><feMergeNode in="SourceGraphic"/></feMerge></filter><circle id="b" cx="125" cy="125" r="125"/></defs><g fill="none" fill-rule="evenodd"><g filter="url(#a)" transform="translate(2 1)"><mask id="c" fill="#fff"><use xlink:href="#b"/></mask><use fill="#FF3140" xlink:href="#b"/><path fill-opacity=".3" fill="#000" mask="url(#c)" d="M73.5 120.5l15.5-61 14.5-3 74 75.2 7-9.7L167 99.5l1-40 115 117L169.5 276l-85-86.5"/></g><path d="M64 119.7c3.7 0 6.6-1 9-3 2.2-1.8 3.7-4.4 4.5-7.7.7-3.2 1-8.8 1.2-16.7 0-7.8.2-13 .4-15.5.5-4 1.3-7.2 2.5-9.6 1-2.4 2.6-4.3 4.3-5.8 1.7-1.4 3.8-2.5 6.5-3.3 1.8-.3 4.7-.6 8.8-.6h4v11.2h-2.2c-5 0-8 .8-9.7 2.6-1.5 1.8-2.3 5.7-2.3 12 0 12.2-.3 20-.8 23.3-1 5-2.4 9-4.5 11.7-2 2.7-5.3 5.2-9.6 7.3 5 2 8.8 5.5 11.2 10 2.3 4.4 3.5 11.7 3.5 21.8 0 9.2 0 14.7.2 16.5.3 3.2 1.3 5.4 2.8 6.7 1.5 1.3 4.6 2 9 2h2.2v11h-4c-4.6 0-8-.4-10-1-3-1.2-5.5-3-7.5-5.4-2-2.3-3.3-5.4-4-9-.4-4-.8-10-.8-18.5s-.5-14.3-1.2-17.6c-.8-3.4-2.3-6-4.6-7.8-2.4-2-5.3-3-9-3v-11.5zm129 0v11.5c-3.6 0-6.6 1-9 3-2 2-3.7 4.4-4.4 7.7-.8 3-1.2 8.7-1.2 16.5 0 8-.2 13-.4 15.6-.5 4-1.3 7.3-2.4 9.7-1.2 2.4-2.6 4.3-4.3 5.7-1.7 1.5-4 2.6-6.5 3.3-1.8.6-4.7.8-8.8.8h-4v-11h2.2c5 0 8.2-1 9.8-2.8 1.6-1.7 2.4-5.7 2.4-12 0-11.7.2-19.2.7-22.3.8-5.3 2.3-9.5 4.6-12.6 2.2-3 5.5-5.6 9.6-7.3-5.4-2.6-9.2-6-11.5-10.3-2.2-4.3-3.3-11.5-3.3-21.7 0-9.2 0-14.7-.3-16.5-.3-3-1.2-5.3-2.7-6.6-1.6-1.2-4.6-1.8-9-1.8H152V57.4h4c4.6 0 8 .4 10 1.2 3 1 5.6 2.8 7.6 5.2 2 2.5 3.2 5.6 3.8 9.3.6 3.8 1 10 1 18.4 0 8.5.4 14.4 1.2 17.6.7 3.2 2.3 5.8 4.5 7.7 2.4 2 5.4 3 9 3z" fill="#444"/></g></svg>