<?xml version="1.0" encoding="UTF-8" standalone="no"?>
<svg width="254px" height="254px" viewBox="0 0 254 254" version="1.1" xmlns="http://www.w3.org/2000/svg" xmlns:xlink="http://www.w3.org/1999/xlink">
    <!-- Generator: Sketch 3.8.3 (29802) - http://www.bohemiancoding.com/sketch -->
    <title>Code</title>
    <desc>Created with Sketch.</desc>
    <defs>
        <filter x="-50%" y="-50%" width="200%" height="200%" filterUnits="objectBoundingBox" id="filter-1">
            <feOffset dx="0" dy="1" in="SourceAlpha" result="shadowOffsetOuter1"></feOffset>
            <feGaussianBlur stdDeviation="1" in="shadowOffsetOuter1" result="shadowBlurOuter1"></feGaussianBlur>
            <feColorMatrix values="0 0 0 0 0   0 0 0 0 0   0 0 0 0 0  0 0 0 0.5 0" type="matrix" in="shadowBlurOuter1" result="shadowMatrixOuter1"></feColorMatrix>
            <feMerge>
                <feMergeNode in="shadowMatrixOuter1"></feMergeNode>
                <feMergeNode in="SourceGraphic"></feMergeNode>
            </feMerge>
        </filter>
        <circle id="path-2" cx="125" cy="125" r="125"></circle>
    </defs>
    <g id="Page-1" stroke="none" stroke-width="1" fill="none" fill-rule="evenodd">
        <g id="Code" transform="translate(2.000000, 1.000000)">
            <g id="ShadowBackground" filter="url(#filter-1)">
                <mask id="mask-3" fill="white">
                    <use xlink:href="#path-2"></use>
                </mask>
                <use id="Mask" fill="#FF3140" xlink:href="#path-2"></use>
                <polygon id="Shadow-2" fill-opacity="0.3" fill="#000000" mask="url(#mask-3)" points="73.5 120.5 89 59.5 103.5 56.5 177.641061 131.677998 184.5 122 167 99.5 168 59.5 283 176.5 169.5 276 84.5 189.5"></polygon>
            </g>
            <path d="M62.0356445,118.669922 C65.6701028,118.57552 68.6319059,117.596119 70.9211426,115.731689 C73.2103793,113.86726 74.7325809,111.306657 75.487793,108.049805 C76.2430051,104.792952 76.6442055,99.2233467 76.6914062,91.3408203 C76.738607,83.4582939 76.8802072,78.2662885 77.1162109,75.7646484 C77.5410177,71.7997849 78.3316186,68.6137816 79.4880371,66.206543 C80.6444557,63.7993044 82.0722571,61.8759024 83.7714844,60.4362793 C85.4707116,58.9966562 87.6419139,57.8992551 90.2851562,57.144043 C92.078785,56.6720354 95.005188,56.4360352 99.0644531,56.4360352 L103.029297,56.4360352 L103.029297,67.5517578 L100.834473,67.5517578 C95.9255939,67.5517578 92.6687906,68.4367587 91.0639648,70.2067871 C89.4591391,71.9768155 88.6567383,75.9298196 88.6567383,82.065918 C88.6567383,94.4325163 88.397138,102.244124 87.8779297,105.500977 C87.0283161,110.551458 85.5769146,114.445462 83.5236816,117.183105 C81.4704487,119.920749 78.2490454,122.351552 73.859375,124.475586 C79.0514583,126.646821 82.8156621,129.962624 85.1520996,134.423096 C87.4885371,138.883567 88.6567383,146.187775 88.6567383,156.335938 C88.6567383,165.540085 88.7511384,171.015291 88.9399414,172.761719 C89.3175475,175.97137 90.2733484,178.213373 91.807373,179.487793 C93.3413976,180.762213 96.3504008,181.399414 100.834473,181.399414 L103.029297,181.399414 L103.029297,192.515137 L99.0644531,192.515137 C94.438779,192.515137 91.0875755,192.137536 89.0107422,191.382324 C85.9898937,190.296707 83.4882912,188.538505 81.5058594,186.107666 C79.5234276,183.676827 78.2372263,180.597024 77.6472168,176.868164 C77.0572073,173.139304 76.738607,167.026898 76.6914062,158.530762 C76.6442055,150.034625 76.2430051,144.158219 75.487793,140.901367 C74.7325809,137.644515 73.2103793,135.072112 70.9211426,133.184082 C68.6319059,131.296052 65.6701028,130.304851 62.0356445,130.210449 L62.0356445,118.669922 Z M191.034668,118.669922 L191.034668,130.210449 C187.40021,130.304851 184.438407,131.296052 182.14917,133.184082 C179.859933,135.072112 178.337732,137.632715 177.58252,140.865967 C176.827307,144.099219 176.426107,149.657024 176.378906,157.539551 C176.331705,165.422077 176.190105,170.614083 175.954102,173.115723 C175.529295,177.127787 174.738694,180.32559 173.582275,182.709229 C172.425857,185.092867 170.998055,187.004469 169.298828,188.444092 C167.599601,189.883715 165.428399,190.981116 162.785156,191.736328 C160.991527,192.255536 158.065124,192.515137 154.005859,192.515137 L150.041016,192.515137 L150.041016,181.399414 L152.23584,181.399414 C157.144719,181.399414 160.401522,180.514413 162.006348,178.744385 C163.611173,176.974356 164.413574,172.997752 164.413574,166.814453 C164.413574,155.014264 164.625974,147.533056 165.050781,144.370605 C165.805993,139.131321 167.316395,134.942317 169.582031,131.803467 C171.847668,128.664616 175.057271,126.222014 179.210938,124.475586 C173.78285,121.879544 169.959647,118.445741 167.741211,114.174072 C165.522775,109.902404 164.413574,102.692596 164.413574,92.5444336 C164.413574,83.340286 164.295574,77.8414803 164.05957,76.0478516 C163.729165,72.8854009 162.796964,70.6787986 161.262939,69.4279785 C159.728915,68.1771585 156.719912,67.5517578 152.23584,67.5517578 L150.041016,67.5517578 L150.041016,56.4360352 L154.005859,56.4360352 C158.631534,56.4360352 161.982737,56.8136355 164.05957,57.5688477 C167.080419,58.6072643 169.582021,60.3536661 171.564453,62.8081055 C173.546885,65.2625448 174.833086,68.354148 175.423096,72.0830078 C176.013105,75.8118676 176.331705,81.9242739 176.378906,90.4204102 C176.426107,98.9165464 176.827307,104.781152 177.58252,108.014404 C178.337732,111.247656 179.859933,113.808259 182.14917,115.696289 C184.438407,117.584319 187.40021,118.57552 191.034668,118.669922 L191.034668,118.669922 Z" id="{-}" fill="#444444"></path>
        </g>
    </g>
</svg>