<?xml version="1.0" encoding="UTF-8" standalone="no"?>
<svg width="490px" height="113px" viewBox="0 0 490 113" version="1.1" xmlns="http://www.w3.org/2000/svg" xmlns:xlink="http://www.w3.org/1999/xlink">
    <!-- Generator: Sketch 3.8.3 (29802) - http://www.bohemiancoding.com/sketch -->
    <title>Logo</title>
    <desc>Created with Sketch.</desc>
    <defs></defs>
    <g id="Page-1" stroke="none" stroke-width="1" fill="none" fill-rule="evenodd">
        <g id="Logo" fill="#FFFFFF">
            <path d="M183.204,31.872 L183.204,7.572 L189.252,7.572 C191.34001,7.572 193.094993,7.86899703 194.517,8.463 C195.939007,9.05700297 197.081996,9.91199442 197.946,11.028 C198.810004,12.1440056 199.430998,13.4849922 199.809,15.051 C200.187002,16.6170078 200.376,18.3719903 200.376,20.316 C200.376,22.4400106 200.106003,24.2399926 199.566,25.716 C199.025997,27.1920074 198.306005,28.3889954 197.406,29.307 C196.505996,30.2250046 195.480006,30.881998 194.328,31.278 C193.175994,31.674002 191.988006,31.872 190.764,31.872 L183.204,31.872 Z M174.726,0.444 L174.726,39 L191.358,39 C194.310015,39 196.874989,38.505005 199.053,37.515 C201.231011,36.5249951 203.048993,35.1660086 204.507,33.438 C205.965007,31.7099914 207.053996,29.6580119 207.774,27.282 C208.494004,24.9059881 208.854,22.314014 208.854,19.506 C208.854,16.301984 208.413004,13.5120119 207.531,11.136 C206.648996,8.75998812 205.425008,6.78000792 203.859,5.196 C202.292992,3.61199208 200.439011,2.42400396 198.297,1.632 C196.154989,0.83999604 193.842012,0.444 191.358,0.444 L174.726,0.444 Z M232.722,22.044 L220.248,22.044 C220.284,21.5039973 220.400999,20.8920034 220.599,20.208 C220.797001,19.5239966 221.138998,18.8760031 221.625,18.264 C222.111002,17.6519969 222.758996,17.1390021 223.569,16.725 C224.379004,16.3109979 225.395994,16.104 226.62,16.104 C228.492009,16.104 229.886995,16.607995 230.805,17.616 C231.723005,18.624005 232.361998,20.0999903 232.722,22.044 L232.722,22.044 Z M220.248,26.904 L240.39,26.904 C240.534001,24.7439892 240.354003,22.6740099 239.85,20.694 C239.345997,18.7139901 238.527006,16.9500077 237.393,15.402 C236.258994,13.8539923 234.810009,12.6210046 233.046,11.703 C231.281991,10.7849954 229.212012,10.326 226.836,10.326 C224.711989,10.326 222.777009,10.7039962 221.031,11.46 C219.284991,12.2160038 217.782006,13.2509934 216.522,14.565 C215.261994,15.8790066 214.290003,17.435991 213.606,19.236 C212.921997,21.036009 212.58,22.9799896 212.58,25.068 C212.58,27.2280108 212.912997,29.207991 213.579,31.008 C214.245003,32.808009 215.189994,34.3559935 216.414,35.652 C217.638006,36.9480065 219.131991,37.9469965 220.896,38.649 C222.660009,39.3510035 224.639989,39.702 226.836,39.702 C230.004016,39.702 232.703989,38.9820072 234.936,37.542 C237.168011,36.1019928 238.823995,33.7080167 239.904,30.36 L233.154,30.36 C232.901999,31.2240043 232.218006,32.0429961 231.102,32.817 C229.985994,33.5910039 228.654008,33.978 227.106,33.978 C224.945989,33.978 223.290006,33.4200056 222.138,32.304 C220.985994,31.1879944 220.356001,29.3880124 220.248,26.904 L220.248,26.904 Z M244.926,11.082 L244.926,39 L252.594,39 L252.594,24.366 C252.594,21.5219858 253.061995,19.4790062 253.998,18.237 C254.934005,16.9949938 256.44599,16.374 258.534,16.374 C260.370009,16.374 261.647996,16.9409943 262.368,18.075 C263.088004,19.2090057 263.448,20.9279885 263.448,23.232 L263.448,39 L271.116,39 L271.116,21.828 C271.116,20.0999914 270.963002,18.5250071 270.657,17.103 C270.350998,15.6809929 269.820004,14.475005 269.064,13.485 C268.307996,12.4949951 267.273007,11.7210028 265.959,11.163 C264.644993,10.6049972 262.96201,10.326 260.91,10.326 C259.289992,10.326 257.706008,10.6949963 256.158,11.433 C254.609992,12.1710037 253.350005,13.3499919 252.378,14.97 L252.216,14.97 L252.216,11.082 L244.926,11.082 Z M277.65,0.444 L277.65,39 L285.318,39 L285.318,29.388 L288.288,26.526 L295.956,39 L305.244,39 L293.526,21.342 L304.056,11.082 L294.984,11.082 L285.318,21.126 L285.318,0.444 L277.65,0.444 Z M180.342,97.68 L180.342,67.764 L188.982,67.764 C191.358012,67.764 193.355992,68.0969967 194.976,68.763 C196.596008,69.4290033 197.918995,70.4009936 198.945,71.679 C199.971005,72.9570064 200.708998,74.5049909 201.159,76.323 C201.609002,78.1410091 201.834,80.2019885 201.834,82.506 C201.834,84.8820119 201.591002,86.9069916 201.105,88.581 C200.618998,90.2550084 199.998004,91.6499944 199.242,92.766 C198.485996,93.8820056 197.631005,94.7639968 196.677,95.412 C195.722995,96.0600032 194.760005,96.5549983 193.788,96.897 C192.815995,97.2390017 191.898004,97.4549996 191.034,97.545 C190.169996,97.6350005 189.450003,97.68 188.874,97.68 L180.342,97.68 Z M175.212,63.444 L175.212,102 L188.442,102 C191.646016,102 194.417988,101.550005 196.758,100.65 C199.098012,99.7499955 201.023992,98.4450086 202.536,96.735 C204.048008,95.0249915 205.163996,92.9190125 205.884,90.417 C206.604004,87.9149875 206.964,85.0440162 206.964,81.804 C206.964,75.611969 205.362016,71.0040151 202.158,67.98 C198.953984,64.9559849 194.38203,63.444 188.442,63.444 L175.212,63.444 Z M231.858,85.368 L215.82,85.368 C215.892,84.2879946 216.125998,83.2710048 216.522,82.317 C216.918002,81.3629952 217.457997,80.5260036 218.142,79.806 C218.826003,79.0859964 219.644995,78.5190021 220.599,78.105 C221.553005,77.6909979 222.623994,77.484 223.812,77.484 C224.964006,77.484 226.016995,77.6909979 226.971,78.105 C227.925005,78.5190021 228.752996,79.0769965 229.455,79.779 C230.157004,80.4810035 230.714998,81.3179951 231.129,82.29 C231.543002,83.2620049 231.786,84.2879946 231.858,85.368 L231.858,85.368 Z M236.286,93.144 L231.75,93.144 C231.353998,94.9800092 230.535006,96.3479955 229.293,97.248 C228.050994,98.1480045 226.45801,98.598 224.514,98.598 C223.001992,98.598 221.688006,98.3460025 220.572,97.842 C219.455994,97.3379975 218.538004,96.6630042 217.818,95.817 C217.097996,94.9709958 216.576002,93.9990055 216.252,92.901 C215.927998,91.8029945 215.784,90.6420061 215.82,89.418 L236.718,89.418 C236.79,87.7259915 236.637002,85.9440094 236.259,84.072 C235.880998,82.1999906 235.197005,80.4720079 234.207,78.888 C233.216995,77.3039921 231.903008,75.9990051 230.265,74.973 C228.626992,73.9469949 226.566012,73.434 224.082,73.434 C222.17399,73.434 220.419008,73.7939964 218.817,74.514 C217.214992,75.2340036 215.829006,76.2419935 214.659,77.538 C213.488994,78.8340065 212.580003,80.3639912 211.932,82.128 C211.283997,83.8920088 210.96,85.8359894 210.96,87.96 C211.032,90.0840106 211.346997,92.045991 211.905,93.846 C212.463003,95.646009 213.299994,97.1939935 214.416,98.49 C215.532006,99.7860065 216.908992,100.793996 218.547,101.514 C220.185008,102.234004 222.119989,102.594 224.352,102.594 C227.520016,102.594 230.14799,101.802008 232.236,100.218 C234.32401,98.6339921 235.673997,96.2760157 236.286,93.144 L236.286,93.144 Z M254.052,102 L264.258,74.082 L259.452,74.082 L251.838,97.356 L251.73,97.356 L243.9,74.082 L238.77,74.082 L249.138,102 L254.052,102 Z M287.856,85.368 L271.818,85.368 C271.89,84.2879946 272.123998,83.2710048 272.52,82.317 C272.916002,81.3629952 273.455997,80.5260036 274.14,79.806 C274.824003,79.0859964 275.642995,78.5190021 276.597,78.105 C277.551005,77.6909979 278.621994,77.484 279.81,77.484 C280.962006,77.484 282.014995,77.6909979 282.969,78.105 C283.923005,78.5190021 284.750996,79.0769965 285.453,79.779 C286.155004,80.4810035 286.712998,81.3179951 287.127,82.29 C287.541002,83.2620049 287.784,84.2879946 287.856,85.368 L287.856,85.368 Z M292.284,93.144 L287.748,93.144 C287.351998,94.9800092 286.533006,96.3479955 285.291,97.248 C284.048994,98.1480045 282.45601,98.598 280.512,98.598 C278.999992,98.598 277.686006,98.3460025 276.57,97.842 C275.453994,97.3379975 274.536004,96.6630042 273.816,95.817 C273.095996,94.9709958 272.574002,93.9990055 272.25,92.901 C271.925998,91.8029945 271.782,90.6420061 271.818,89.418 L292.716,89.418 C292.788,87.7259915 292.635002,85.9440094 292.257,84.072 C291.878998,82.1999906 291.195005,80.4720079 290.205,78.888 C289.214995,77.3039921 287.901008,75.9990051 286.263,74.973 C284.624992,73.9469949 282.564012,73.434 280.08,73.434 C278.17199,73.434 276.417008,73.7939964 274.815,74.514 C273.212992,75.2340036 271.827006,76.2419935 270.657,77.538 C269.486994,78.8340065 268.578003,80.3639912 267.93,82.128 C267.281997,83.8920088 266.958,85.8359894 266.958,87.96 C267.03,90.0840106 267.344997,92.045991 267.903,93.846 C268.461003,95.646009 269.297994,97.1939935 270.414,98.49 C271.530006,99.7860065 272.906992,100.793996 274.545,101.514 C276.183008,102.234004 278.117989,102.594 280.35,102.594 C283.518016,102.594 286.14599,101.802008 288.234,100.218 C290.32201,98.6339921 291.671997,96.2760157 292.284,93.144 L292.284,93.144 Z M297.738,63.444 L297.738,102 L302.328,102 L302.328,63.444 L297.738,63.444 Z M312.804,88.068 C312.804,86.3759915 313.028998,84.8730066 313.479,83.559 C313.929002,82.2449934 314.549996,81.1380045 315.342,80.238 C316.134004,79.3379955 317.060995,78.6540023 318.123,78.186 C319.185005,77.7179977 320.309994,77.484 321.498,77.484 C322.686006,77.484 323.810995,77.7179977 324.873,78.186 C325.935005,78.6540023 326.861996,79.3379955 327.654,80.238 C328.446004,81.1380045 329.066998,82.2449934 329.517,83.559 C329.967002,84.8730066 330.192,86.3759915 330.192,88.068 C330.192,89.7600085 329.967002,91.2629934 329.517,92.577 C329.066998,93.8910066 328.446004,94.9889956 327.654,95.871 C326.861996,96.7530044 325.935005,97.4279977 324.873,97.896 C323.810995,98.3640023 322.686006,98.598 321.498,98.598 C320.309994,98.598 319.185005,98.3640023 318.123,97.896 C317.060995,97.4279977 316.134004,96.7530044 315.342,95.871 C314.549996,94.9889956 313.929002,93.8910066 313.479,92.577 C313.028998,91.2629934 312.804,89.7600085 312.804,88.068 L312.804,88.068 Z M307.944,88.068 C307.944,90.1200103 308.231997,92.0279912 308.808,93.792 C309.384003,95.5560088 310.247994,97.0949934 311.4,98.409 C312.552006,99.7230066 313.973992,100.748996 315.666,101.487 C317.358008,102.225004 319.301989,102.594 321.498,102.594 C323.730011,102.594 325.682992,102.225004 327.357,101.487 C329.031008,100.748996 330.443994,99.7230066 331.596,98.409 C332.748006,97.0949934 333.611997,95.5560088 334.188,93.792 C334.764003,92.0279912 335.052,90.1200103 335.052,88.068 C335.052,86.0159897 334.764003,84.0990089 334.188,82.317 C333.611997,80.5349911 332.748006,78.9870066 331.596,77.673 C330.443994,76.3589934 329.031008,75.3240038 327.357,74.568 C325.682992,73.8119962 323.730011,73.434 321.498,73.434 C319.301989,73.434 317.358008,73.8119962 315.666,74.568 C313.973992,75.3240038 312.552006,76.3589934 311.4,77.673 C310.247994,78.9870066 309.384003,80.5349911 308.808,82.317 C308.231997,84.0990089 307.944,86.0159897 307.944,88.068 L307.944,88.068 Z M340.614,74.082 L340.614,112.638 L345.204,112.638 L345.204,98.274 L345.312,98.274 C345.816003,99.1020041 346.436996,99.7949972 347.175,100.353 C347.913004,100.911003 348.695996,101.351998 349.524,101.676 C350.352004,102.000002 351.188996,102.233999 352.035,102.378 C352.881004,102.522001 353.645997,102.594 354.33,102.594 C356.454011,102.594 358.316992,102.216004 359.919,101.46 C361.521008,100.703996 362.852995,99.6690066 363.915,98.355 C364.977005,97.0409934 365.768997,95.5020088 366.291,93.738 C366.813003,91.9739912 367.074,90.1020099 367.074,88.122 C367.074,86.1419901 366.804003,84.2700088 366.264,82.506 C365.723997,80.7419912 364.923005,79.1850068 363.861,77.835 C362.798995,76.4849933 361.467008,75.414004 359.865,74.622 C358.262992,73.829996 356.382011,73.434 354.222,73.434 C352.27799,73.434 350.496008,73.7849965 348.876,74.487 C347.255992,75.1890035 346.068004,76.3139923 345.312,77.862 L345.204,77.862 L345.204,74.082 L340.614,74.082 Z M362.214,87.798 C362.214,89.1660068 362.070001,90.4979935 361.782,91.794 C361.493999,93.0900065 361.026003,94.241995 360.378,95.25 C359.729997,96.258005 358.875005,97.0679969 357.813,97.68 C356.750995,98.2920031 355.428008,98.598 353.844,98.598 C352.259992,98.598 350.910006,98.301003 349.794,97.707 C348.677994,97.112997 347.769004,96.3300049 347.067,95.358 C346.364996,94.3859951 345.852002,93.2610064 345.528,91.983 C345.203998,90.7049936 345.042,89.3820068 345.042,88.014 C345.042,86.7179935 345.194998,85.4400063 345.501,84.18 C345.807002,82.9199937 346.301997,81.795005 346.986,80.805 C347.670003,79.8149951 348.551995,79.0140031 349.632,78.402 C350.712005,77.7899969 352.025992,77.484 353.574,77.484 C355.050007,77.484 356.336995,77.7719971 357.435,78.348 C358.533005,78.9240029 359.432996,79.6979951 360.135,80.67 C360.837004,81.6420049 361.358998,82.7489938 361.701,83.991 C362.043002,85.2330062 362.214,86.5019935 362.214,87.798 L362.214,87.798 Z M372.474,74.082 L372.474,102 L377.064,102 L377.064,84.612 C377.064,84.0719973 377.198999,83.3970041 377.469,82.587 C377.739001,81.776996 378.170997,80.9940038 378.765,80.238 C379.359003,79.4819962 380.132995,78.8340027 381.087,78.294 C382.041005,77.7539973 383.183993,77.484 384.516,77.484 C385.560005,77.484 386.414997,77.6369985 387.081,77.943 C387.747003,78.2490015 388.277998,78.6809972 388.674,79.239 C389.070002,79.7970028 389.348999,80.4539962 389.511,81.21 C389.673001,81.9660038 389.754,82.7939955 389.754,83.694 L389.754,102 L394.344,102 L394.344,84.612 C394.344,82.4519892 394.991994,80.7240065 396.288,79.428 C397.584006,78.1319935 399.365989,77.484 401.634,77.484 C402.750006,77.484 403.658996,77.6459984 404.361,77.97 C405.063004,78.2940016 405.611998,78.7349972 406.008,79.293 C406.404002,79.8510028 406.673999,80.5079962 406.818,81.264 C406.962001,82.0200038 407.034,82.8299957 407.034,83.694 L407.034,102 L411.624,102 L411.624,81.534 C411.624,80.0939928 411.399002,78.8610051 410.949,77.835 C410.498998,76.8089949 409.869004,75.9720032 409.059,75.324 C408.248996,74.6759968 407.277006,74.1990015 406.143,73.893 C405.008994,73.5869985 403.740007,73.434 402.336,73.434 C400.499991,73.434 398.817008,73.8479959 397.287,74.676 C395.756992,75.5040041 394.524005,76.6739924 393.588,78.186 C393.011997,76.4579914 392.022007,75.2340036 390.618,74.514 C389.213993,73.7939964 387.648009,73.434 385.92,73.434 C381.99598,73.434 378.99001,75.0179842 376.902,78.186 L376.794,78.186 L376.794,74.082 L372.474,74.082 Z M437.922,85.368 L421.884,85.368 C421.956,84.2879946 422.189998,83.2710048 422.586,82.317 C422.982002,81.3629952 423.521997,80.5260036 424.206,79.806 C424.890003,79.0859964 425.708995,78.5190021 426.663,78.105 C427.617005,77.6909979 428.687994,77.484 429.876,77.484 C431.028006,77.484 432.080995,77.6909979 433.035,78.105 C433.989005,78.5190021 434.816996,79.0769965 435.519,79.779 C436.221004,80.4810035 436.778998,81.3179951 437.193,82.29 C437.607002,83.2620049 437.85,84.2879946 437.922,85.368 L437.922,85.368 Z M442.35,93.144 L437.814,93.144 C437.417998,94.9800092 436.599006,96.3479955 435.357,97.248 C434.114994,98.1480045 432.52201,98.598 430.578,98.598 C429.065992,98.598 427.752006,98.3460025 426.636,97.842 C425.519994,97.3379975 424.602004,96.6630042 423.882,95.817 C423.161996,94.9709958 422.640002,93.9990055 422.316,92.901 C421.991998,91.8029945 421.848,90.6420061 421.884,89.418 L442.782,89.418 C442.854,87.7259915 442.701002,85.9440094 442.323,84.072 C441.944998,82.1999906 441.261005,80.4720079 440.271,78.888 C439.280995,77.3039921 437.967008,75.9990051 436.329,74.973 C434.690992,73.9469949 432.630012,73.434 430.146,73.434 C428.23799,73.434 426.483008,73.7939964 424.881,74.514 C423.278992,75.2340036 421.893006,76.2419935 420.723,77.538 C419.552994,78.8340065 418.644003,80.3639912 417.996,82.128 C417.347997,83.8920088 417.024,85.8359894 417.024,87.96 C417.096,90.0840106 417.410997,92.045991 417.969,93.846 C418.527003,95.646009 419.363994,97.1939935 420.48,98.49 C421.596006,99.7860065 422.972992,100.793996 424.611,101.514 C426.249008,102.234004 428.183989,102.594 430.416,102.594 C433.584016,102.594 436.21199,101.802008 438.3,100.218 C440.38801,98.6339921 441.737997,96.2760157 442.35,93.144 L442.35,93.144 Z M447.534,74.082 L447.534,102 L452.124,102 L452.124,86.232 C452.124,84.9719937 452.294998,83.8110053 452.637,82.749 C452.979002,81.6869947 453.491997,80.760004 454.176,79.968 C454.860003,79.175996 455.714995,78.5640022 456.741,78.132 C457.767005,77.6999978 458.981993,77.484 460.386,77.484 C462.150009,77.484 463.535995,77.987995 464.544,78.996 C465.552005,80.004005 466.056,81.3719914 466.056,83.1 L466.056,102 L470.646,102 L470.646,83.64 C470.646,82.1279924 470.493002,80.7510062 470.187,79.509 C469.880998,78.2669938 469.350004,77.1960045 468.594,76.296 C467.837996,75.3959955 466.848006,74.6940025 465.624,74.19 C464.399994,73.6859975 462.870009,73.434 461.034,73.434 C456.893979,73.434 453.87001,75.1259831 451.962,78.51 L451.854,78.51 L451.854,74.082 L447.534,74.082 Z M483.93,74.082 L483.93,65.712 L479.34,65.712 L479.34,74.082 L474.588,74.082 L474.588,78.132 L479.34,78.132 L479.34,95.898 C479.34,97.1940065 479.465999,98.237996 479.718,99.03 C479.970001,99.822004 480.356997,100.433998 480.879,100.866 C481.401003,101.298002 482.084996,101.594999 482.931,101.757 C483.777004,101.919001 484.793994,102 485.982,102 L489.492,102 L489.492,97.95 L487.386,97.95 C486.665996,97.95 486.081002,97.9230003 485.631,97.869 C485.180998,97.8149997 484.830001,97.6980009 484.578,97.518 C484.325999,97.3379991 484.155,97.0860016 484.065,96.762 C483.975,96.4379984 483.93,96.0060027 483.93,95.466 L483.93,78.132 L489.492,78.132 L489.492,74.082 L483.93,74.082 Z" id="Denk"></path>
            <g id="Symbol" transform="translate(0.000000, 4.000000)">
                <polygon id="/" points="79.5084109 0 54.9756614 92.3544304 66.0153986 96 90.5481481 3.64556962"></polygon>
                <polygon id="&gt;" transform="translate(122.222186, 47.633898) rotate(180.000000) translate(-122.222186, -47.633898) " points="145.52381 18.5084746 136.939001 8.8 98.9205632 47.6338983 136.939001 86.4677966 145.52381 76.759322 116.09018 47.6338983"></polygon>
                <polygon id="&lt;" points="46.6032463 18.6440678 38.0184378 8.93559322 5.70136162e-14 47.7694915 38.0184378 86.6033898 46.6032463 76.8949153 17.1696171 47.7694915"></polygon>
            </g>
        </g>
    </g>
</svg>