<svg width="490" height="113" viewBox="0 0 490 113" xmlns="http://www.w3.org/2000/svg"><title>Logo</title><g fill="none" fill-rule="evenodd"><path d="M183.204 31.872v-24.3h6.048c2.088 0 3.843.297 5.265.891 1.422.594 2.565 1.449 3.429 2.565.864 1.116 1.485 2.457 1.863 4.023.378 1.566.567 3.321.567 5.265 0 2.124-.27 3.924-.81 5.4-.54 1.476-1.26 2.673-2.16 3.591-.9.918-1.926 1.575-3.078 1.971-1.152.396-2.34.594-3.564.594h-7.56zM174.726.444V39h16.632c2.952 0 5.517-.495 7.695-1.485 2.178-.99 3.996-2.349 5.454-4.077 1.458-1.728 2.547-3.78 3.267-6.156.72-2.376 1.08-4.968 1.08-7.776 0-3.20402-.441-5.994-1.323-8.37-.882-2.376-2.106-4.356-3.672-5.94-1.566-1.584-3.42-2.772-5.562-3.564-2.142-.792-4.455-1.188-6.939-1.188h-16.632zm57.996 21.6h-12.474c.036-.54.153-1.152.351-1.836.198-.684.54-1.332 1.026-1.944.486-.612 1.134-1.125 1.944-1.539.81-.414 1.827-.621 3.051-.621 1.872 0 3.267.504 4.185 1.512.918 1.008 1.557 2.484 1.917 4.428zm-12.474 4.86h20.142c.144-2.16-.036-4.23-.54-6.21-.504-1.98-1.323-3.744-2.457-5.292-1.134-1.548-2.583-2.781-4.347-3.699-1.764-.918-3.834-1.377-6.21-1.377-2.124 0-4.059.378-5.805 1.134-1.746.756-3.249 1.791-4.509 3.105-1.26 1.314-2.232 2.871-2.916 4.671-.684 1.8-1.026 3.744-1.026 5.832 0 2.16.333 4.14.999 5.94.666 1.8 1.611 3.348 2.835 4.644 1.224 1.296 2.718 2.295 4.482 2.997 1.764.702 3.744 1.053 5.94 1.053 3.16802 0 5.868-.72 8.1-2.16 2.232-1.44 3.888-3.83398 4.968-7.182h-6.75c-.252.864-.936 1.683-2.052 2.457-1.116.774-2.448 1.161-3.996 1.161-2.16 0-3.816-.558-4.968-1.674-1.152-1.116-1.782-2.916-1.89-5.4zm24.678-15.822V39h7.668V24.366c0-2.844.468-4.887 1.404-6.129.936-1.242 2.448-1.863 4.536-1.863 1.836 0 3.114.567 3.834 1.701.72 1.134 1.08 2.853 1.08 5.157V39h7.668V21.828c0-1.728-.153-3.303-.459-4.725-.306-1.422-.837-2.628-1.593-3.618-.756-.99-1.791-1.764-3.105-2.322s-2.997-.837-5.049-.837c-1.62 0-3.204.369-4.752 1.107-1.548.738-2.808 1.917-3.78 3.537h-.162v-3.888h-7.29zM277.65.444V39h7.668v-9.612l2.97-2.862L295.956 39h9.288l-11.718-17.658 10.53-10.26h-9.072l-9.666 10.044V.444h-7.668zM180.342 97.68V67.764h8.64c2.376 0 4.374.333 5.994.999 1.62.666 2.943 1.638 3.969 2.916 1.026 1.278 1.764 2.826 2.214 4.644.45 1.818.675 3.879.675 6.183 0 2.376-.243 4.401-.729 6.075-.486 1.674-1.107 3.069-1.863 4.185-.756 1.116-1.611 1.998-2.565 2.646-.954.648-1.917 1.143-2.889 1.485-.972.342-1.89.558-2.754.648-.864.09-1.584.135-2.16.135h-8.532zm-5.13-34.236V102h13.23c3.20402 0 5.976-.45 8.316-1.35 2.34-.9 4.266-2.205 5.778-3.915 1.512-1.71 2.628-3.816 3.348-6.318.72-2.502 1.08-5.37298 1.08-8.613 0-6.19203-1.60198-10.79998-4.806-13.824s-7.77597-4.536-13.716-4.536h-13.23zm56.646 21.924H215.82c.072-1.08.306-2.097.702-3.051.396-.954.936-1.791 1.62-2.511.684-.72 1.503-1.287 2.457-1.701.954-.414 2.025-.621 3.213-.621 1.152 0 2.205.207 3.159.621.954.414 1.782.972 2.484 1.674s1.26 1.539 1.674 2.511c.414.972.657 1.998.729 3.078zm4.428 7.776h-4.536c-.396 1.836-1.215 3.204-2.457 4.104-1.242.9-2.835 1.35-4.779 1.35-1.512 0-2.826-.252-3.942-.756s-2.034-1.179-2.754-2.025c-.72-.846-1.242-1.818-1.566-2.916-.324-1.098-.468-2.259-.432-3.483h20.898c.072-1.692-.081-3.474-.459-5.346-.378-1.872-1.062-3.6-2.052-5.184s-2.304-2.889-3.942-3.915c-1.638-1.026-3.699-1.539-6.183-1.539-1.908 0-3.663.36-5.265 1.08-1.602.72-2.988 1.728-4.158 3.024-1.17 1.296-2.079 2.826-2.727 4.59-.648 1.764-.972 3.708-.972 5.832.072 2.124.387 4.086.945 5.886.558 1.8 1.395 3.348 2.511 4.644 1.116 1.296 2.493 2.304 4.131 3.024 1.638.72 3.573 1.08 5.805 1.08 3.16802 0 5.796-.792 7.884-2.376 2.088-1.584 3.438-3.94198 4.05-7.074zM254.052 102l10.206-27.918h-4.806l-7.614 23.274h-.108l-7.83-23.274h-5.13L249.138 102h4.914zm33.804-16.632h-16.038c.072-1.08.306-2.097.702-3.051.396-.954.936-1.791 1.62-2.511.684-.72 1.503-1.287 2.457-1.701.954-.414 2.025-.621 3.213-.621 1.152 0 2.205.207 3.159.621.954.414 1.782.972 2.484 1.674s1.26 1.539 1.674 2.511c.414.972.657 1.998.729 3.078zm4.428 7.776h-4.536c-.396 1.836-1.215 3.204-2.457 4.104-1.242.9-2.835 1.35-4.779 1.35-1.512 0-2.826-.252-3.942-.756s-2.034-1.179-2.754-2.025c-.72-.846-1.242-1.818-1.566-2.916-.324-1.098-.468-2.259-.432-3.483h20.898c.072-1.692-.081-3.474-.459-5.346-.378-1.872-1.062-3.6-2.052-5.184s-2.304-2.889-3.942-3.915c-1.638-1.026-3.699-1.539-6.183-1.539-1.908 0-3.663.36-5.265 1.08-1.602.72-2.988 1.728-4.158 3.024-1.17 1.296-2.079 2.826-2.727 4.59-.648 1.764-.972 3.708-.972 5.832.072 2.124.387 4.086.945 5.886.558 1.8 1.395 3.348 2.511 4.644 1.116 1.296 2.493 2.304 4.131 3.024 1.638.72 3.573 1.08 5.805 1.08 3.16802 0 5.796-.792 7.884-2.376 2.088-1.584 3.438-3.94198 4.05-7.074zm5.454-29.7V102h4.59V63.444h-4.59zm15.066 24.624c0-1.692.225-3.195.675-4.509.45-1.314 1.071-2.421 1.863-3.321.792-.9 1.719-1.584 2.781-2.052 1.062-.468 2.187-.702 3.375-.702 1.188 0 2.313.234 3.375.702 1.062.468 1.989 1.152 2.781 2.052.792.9 1.413 2.007 1.863 3.321.45 1.314.675 2.817.675 4.509 0 1.692-.225 3.195-.675 4.509-.45 1.314-1.071 2.412-1.863 3.294-.792.882-1.719 1.557-2.781 2.025-1.062.468-2.187.702-3.375.702-1.188 0-2.313-.234-3.375-.702-1.062-.468-1.989-1.143-2.781-2.025-.792-.882-1.413-1.98-1.863-3.294-.45-1.314-.675-2.817-.675-4.509zm-4.86 0c0 2.052.288 3.96.864 5.724.576 1.764 1.44 3.303 2.592 4.617 1.152 1.314 2.574 2.34 4.266 3.078 1.692.738 3.636 1.107 5.832 1.107 2.232 0 4.185-.369 5.859-1.107 1.674-.738 3.087-1.764 4.239-3.078 1.152-1.314 2.016-2.853 2.592-4.617.576-1.764.864-3.672.864-5.724s-.288-3.969-.864-5.751c-.576-1.782-1.44-3.33-2.592-4.644-1.152-1.314-2.565-2.349-4.239-3.105-1.674-.756-3.627-1.134-5.859-1.134-2.196 0-4.14.378-5.832 1.134-1.692.756-3.114 1.791-4.266 3.105-1.152 1.314-2.016 2.862-2.592 4.644-.576 1.782-.864 3.699-.864 5.751zm32.67-13.986v38.556h4.59V98.274h.108c.504.828 1.125 1.521 1.863 2.079.738.558 1.521.999 2.349 1.323.828.324 1.665.558 2.511.702.846.144 1.611.216 2.295.216 2.124 0 3.987-.378 5.589-1.134 1.602-.756 2.934-1.791 3.996-3.105 1.062-1.314 1.854-2.853 2.376-4.617.522-1.764.783-3.636.783-5.616 0-1.98-.27-3.852-.81-5.616-.54-1.764-1.341-3.321-2.403-4.671s-2.394-2.421-3.996-3.213c-1.602-.792-3.483-1.188-5.643-1.188-1.944 0-3.726.351-5.346 1.053s-2.808 1.827-3.564 3.375h-.108v-3.78h-4.59zm21.6 13.716c0 1.368-.144 2.7-.432 3.996-.288 1.296-.756 2.448-1.404 3.456-.648 1.008-1.503 1.818-2.565 2.43-1.062.612-2.385.918-3.969.918s-2.934-.297-4.05-.891c-1.116-.594-2.025-1.377-2.727-2.349-.702-.972-1.215-2.097-1.539-3.375-.324-1.278-.486-2.601-.486-3.969 0-1.296.153-2.574.459-3.834.306-1.26.801-2.385 1.485-3.375.684-.99 1.566-1.791 2.646-2.403 1.08-.612 2.394-.918 3.942-.918 1.476 0 2.763.288 3.861.864 1.098.576 1.998 1.35 2.7 2.322.702.972 1.224 2.079 1.566 3.321.342 1.242.513 2.511.513 3.807zm10.26-13.716V102h4.59V84.612c0-.54.135-1.215.405-2.025.27-.81.702-1.593 1.296-2.349.594-.756 1.368-1.404 2.322-1.944s2.097-.81 3.429-.81c1.044 0 1.899.153 2.565.459.666.306 1.197.738 1.593 1.296.396.558.675 1.215.837 1.971.162.756.243 1.584.243 2.484V102h4.59V84.612c0-2.16.648-3.888 1.944-5.184 1.296-1.296 3.078-1.944 5.346-1.944 1.116 0 2.025.162 2.727.486.702.324 1.251.765 1.647 1.323.396.558.666 1.215.81 1.971.144.756.216 1.566.216 2.43V102h4.59V81.534c0-1.44-.225-2.673-.675-3.699-.45-1.026-1.08-1.863-1.89-2.511-.81-.648-1.782-1.125-2.916-1.431-1.134-.306-2.403-.459-3.807-.459-1.836 0-3.519.414-5.049 1.242-1.53.828-2.763 1.998-3.699 3.51-.576-1.728-1.566-2.952-2.97-3.672-1.404-.72-2.97-1.08-4.698-1.08-3.92402 0-6.93 1.58398-9.018 4.752h-.108v-4.104h-4.32zm65.448 11.286h-16.038c.072-1.08.306-2.097.702-3.051.396-.954.936-1.791 1.62-2.511.684-.72 1.503-1.287 2.457-1.701.954-.414 2.025-.621 3.213-.621 1.152 0 2.205.207 3.159.621.954.414 1.782.972 2.484 1.674s1.26 1.539 1.674 2.511c.414.972.657 1.998.729 3.078zm4.428 7.776h-4.536c-.396 1.836-1.215 3.204-2.457 4.104-1.242.9-2.835 1.35-4.779 1.35-1.512 0-2.826-.252-3.942-.756s-2.034-1.179-2.754-2.025c-.72-.846-1.242-1.818-1.566-2.916-.324-1.098-.468-2.259-.432-3.483h20.898c.072-1.692-.081-3.474-.459-5.346-.378-1.872-1.062-3.6-2.052-5.184s-2.304-2.889-3.942-3.915c-1.638-1.026-3.699-1.539-6.183-1.539-1.908 0-3.663.36-5.265 1.08-1.602.72-2.988 1.728-4.158 3.024-1.17 1.296-2.079 2.826-2.727 4.59-.648 1.764-.972 3.708-.972 5.832.072 2.124.387 4.086.945 5.886.558 1.8 1.395 3.348 2.511 4.644 1.116 1.296 2.493 2.304 4.131 3.024 1.638.72 3.573 1.08 5.805 1.08 3.16802 0 5.796-.792 7.884-2.376 2.088-1.584 3.438-3.94198 4.05-7.074zm5.184-19.062V102h4.59V86.232c0-1.26.171-2.421.513-3.483.342-1.062.855-1.989 1.539-2.781.684-.792 1.539-1.404 2.565-1.836 1.026-.432 2.241-.648 3.645-.648 1.764 0 3.15.504 4.158 1.512 1.008 1.008 1.512 2.376 1.512 4.104V102h4.59V83.64c0-1.512-.153-2.889-.459-4.131-.306-1.242-.837-2.313-1.593-3.213-.756-.9-1.746-1.602-2.97-2.106-1.224-.504-2.754-.756-4.59-.756-4.14002 0-7.164 1.69198-9.072 5.076h-.108v-4.428h-4.32zm36.396 0v-8.37h-4.59v8.37h-4.752v4.05h4.752v17.766c0 1.296.126 2.34.378 3.132.252.792.639 1.404 1.161 1.836.522.432 1.206.729 2.052.891.846.162 1.863.243 3.051.243h3.51v-4.05h-2.106c-.72 0-1.305-.027-1.755-.081-.45-.054-.801-.171-1.053-.351-.252-.18-.423-.432-.513-.756-.09-.324-.135-.756-.135-1.296V78.132h5.562v-4.05h-5.562z" fill="#293740"/><path fill="#23374B" d="M79.5084 4L54.97567 96.35443 66.0154 100 90.54815 7.64557"/><path fill="#141620" d="M98.92056 80.75932l8.5848 9.70848 38.01845-38.8339L107.50538 12.8l-8.5848 9.70847 29.43362 29.12543"/><path fill="#328CA5" d="M46.60325 22.64407l-8.5848-9.70848L0 51.7695l38.01844 38.8339 8.5848-9.70848L17.16963 51.7695"/></g></svg>