<?xml version="1.0" encoding="UTF-8" standalone="no"?>
<svg width="254px" height="254px" viewBox="0 0 254 254" version="1.1" xmlns="http://www.w3.org/2000/svg" xmlns:xlink="http://www.w3.org/1999/xlink">
    <!-- Generator: Sketch 3.8.3 (29802) - http://www.bohemiancoding.com/sketch -->
    <title>Microcontroller</title>
    <desc>Created with Sketch.</desc>
    <defs>
        <circle id="path-1" cx="125" cy="125" r="125"></circle>
        <filter x="-50%" y="-50%" width="200%" height="200%" filterUnits="objectBoundingBox" id="filter-3">
            <feOffset dx="0" dy="1" in="SourceAlpha" result="shadowOffsetOuter1"></feOffset>
            <feGaussianBlur stdDeviation="1" in="shadowOffsetOuter1" result="shadowBlurOuter1"></feGaussianBlur>
            <feColorMatrix values="0 0 0 0 0   0 0 0 0 0   0 0 0 0 0  0 0 0 0.5 0" type="matrix" in="shadowBlurOuter1"></feColorMatrix>
        </filter>
    </defs>
    <g id="Page-1" stroke="none" stroke-width="1" fill="none" fill-rule="evenodd">
        <g id="Microcontroller" transform="translate(2.000000, 1.000000)">
            <mask id="mask-2" fill="white">
                <use xlink:href="#path-1"></use>
            </mask>
            <g id="Mask">
                <use fill="black" fill-opacity="1" filter="url(#filter-3)" xlink:href="#path-1"></use>
                <use fill="#00A3E0" fill-rule="evenodd" xlink:href="#path-1"></use>
            </g>
            <g id="Pins" mask="url(#mask-2)">
                <g transform="translate(60.000000, 58.000000)">
                    <g id="Top">
                        <rect id="Rectangle-4" fill="#FAFAFA" x="0" y="0.126953125" width="10" height="15.3730469" rx="4"></rect>
                        <rect id="Rectangle-4" fill="#FAFAFA" x="15" y="0.126953125" width="10" height="15.3730469" rx="4"></rect>
                        <rect id="Rectangle-4" fill="#FAFAFA" x="30" y="0.126953125" width="10" height="15.3730469" rx="4"></rect>
                        <rect id="Rectangle-4" fill="#FAFAFA" x="45" y="0.126953125" width="10" height="15.3730469" rx="4"></rect>
                        <rect id="Rectangle-4" fill="#FAFAFA" x="60" y="0.126953125" width="10" height="15.3730469" rx="4"></rect>
                        <rect id="Rectangle-4" fill="#FAFAFA" x="75" y="0.126953125" width="10" height="15.3730469" rx="4"></rect>
                        <rect id="Rectangle-4" fill="#FAFAFA" x="90" y="0.126953125" width="10" height="15.3730469" rx="4"></rect>
                        <rect id="Rectangle-4" fill="#FAFAFA" x="105" y="0.126953125" width="10" height="15.3730469" rx="4"></rect>
                        <rect id="Rectangle-4" fill="#FAFAFA" x="120" y="0.126953125" width="10" height="15.3730469" rx="4"></rect>
                    </g>
                    <g id="Bottom" transform="translate(0.000000, 118.500000)">
                        <rect id="Rectangle-4" fill="#FAFAFA" x="0" y="0" width="10" height="15.3730469" rx="4"></rect>
                        <rect id="Rectangle-4" fill="#FAFAFA" x="15" y="0" width="10" height="15.3730469" rx="4"></rect>
                        <rect id="Rectangle-4" fill="#FAFAFA" x="30" y="0" width="10" height="15.3730469" rx="4"></rect>
                        <rect id="Rectangle-4" fill="#FAFAFA" x="45" y="0" width="10" height="15.3730469" rx="4"></rect>
                        <rect id="Rectangle-4" fill="#FAFAFA" x="60" y="0" width="10" height="15.3730469" rx="4"></rect>
                        <rect id="Rectangle-4" fill="#FAFAFA" x="75" y="0" width="10" height="15.3730469" rx="4"></rect>
                        <rect id="Rectangle-4" fill="#FAFAFA" x="90" y="0" width="10" height="15.3730469" rx="4"></rect>
                        <rect id="Rectangle-4" fill="#FAFAFA" x="105" y="0" width="10" height="15.3730469" rx="4"></rect>
                        <rect id="Rectangle-4" fill="#FAFAFA" x="120" y="0" width="10" height="15.3730469" rx="4"></rect>
                    </g>
                </g>
            </g>
            <rect id="Rectangle-3" fill="#666666" mask="url(#mask-2)" x="56.5" y="71.5" width="137.5" height="107"></rect>
            <polygon id="Shadow" fill-opacity="0.3" fill="#000000" mask="url(#mask-2)" points="156 71.5 194 71.5 271 174.75 134 278 56.5 178.5 56.5 138.5"></polygon>
            <circle id="Oval-3" fill="#666666" mask="url(#mask-2)" cx="178.5" cy="87.5" r="7.5"></circle>
        </g>
    </g>
</svg>