<svg width="254" height="254" viewBox="0 0 254 254" xmlns="http://www.w3.org/2000/svg" xmlns:xlink="http://www.w3.org/1999/xlink"><defs><circle id="a" cx="125" cy="125" r="125"/><filter x="-50%" y="-50%" width="200%" height="200%" filterUnits="objectBoundingBox" id="b"><feOffset dy="1" in="SourceAlpha" result="shadowOffsetOuter1"/><feGaussianBlur stdDeviation="1" in="shadowOffsetOuter1" result="shadowBlurOuter1"/><feColorMatrix values="0 0 0 0 0 0 0 0 0 0 0 0 0 0 0 0 0 0 0.5 0" in="shadowBlurOuter1"/></filter></defs><g transform="translate(2 1)" fill="none" fill-rule="evenodd"><mask id="c" fill="#fff"><use xlink:href="#a"/></mask><use fill="#000" filter="url(#b)" xlink:href="#a"/><use fill="#00A3E0" xlink:href="#a"/><g fill="#FAFAFA" mask="url(#c)"><g transform="translate(60 58)"><rect y=".1" width="10" height="15.4" rx="4"/><rect x="15" y=".1" width="10" height="15.4" rx="4"/><rect x="30" y=".1" width="10" height="15.4" rx="4"/><rect x="45" y=".1" width="10" height="15.4" rx="4"/><rect x="60" y=".1" width="10" height="15.4" rx="4"/><rect x="75" y=".1" width="10" height="15.4" rx="4"/><rect x="90" y=".1" width="10" height="15.4" rx="4"/><rect x="105" y=".1" width="10" height="15.4" rx="4"/><rect x="120" y=".1" width="10" height="15.4" rx="4"/></g><g transform="translate(60 176.5)"><rect width="10" height="15.4" rx="4"/><rect x="15" width="10" height="15.4" rx="4"/><rect x="30" width="10" height="15.4" rx="4"/><rect x="45" width="10" height="15.4" rx="4"/><rect x="60" width="10" height="15.4" rx="4"/><rect x="75" width="10" height="15.4" rx="4"/><rect x="90" width="10" height="15.4" rx="4"/><rect x="105" width="10" height="15.4" rx="4"/><rect x="120" width="10" height="15.4" rx="4"/></g></g><path fill="#666" mask="url(#c)" d="M56.5 71.5H194v107H56.5z"/><path fill-opacity=".3" fill="#000" mask="url(#c)" d="M156 71.5h38l77 103.3L134 278l-77.5-99.5v-40"/><circle fill="#666" mask="url(#c)" cx="178.5" cy="87.5" r="7.5"/></g></svg>